<svg version="1.1" id="Layer_1" xmlns="http://www.w3.org/2000/svg" xmlns:xlink="http://www.w3.org/1999/xlink" x="0px" y="0px"
	 width="100%" viewBox="0 0 832 1024" enable-background="new 0 0 832 1024" xml:space="preserve">
<path fill="#000000" opacity="1.000000" stroke="none" 
	d="
M420.986511,309.880219 
	C460.143219,311.379425 497.777802,317.568024 533.927490,332.207916 
	C560.325073,342.898407 582.509399,359.486542 603.847839,377.774170 
	C615.237061,387.535065 625.298340,398.602570 632.786987,411.223572 
	C638.737915,421.252991 644.173096,431.835510 649.203857,442.513031 
	C660.366028,466.204102 666.570801,491.338257 671.708069,516.825928 
	C674.634155,531.342834 677.481201,545.878479 680.659119,560.340820 
	C682.210449,567.400635 682.300354,574.571838 682.891907,581.680481 
	C683.986755,594.835388 686.963989,607.633484 689.196472,620.575500 
	C691.849670,635.956360 693.843201,651.421448 698.084351,666.542175 
	C704.000061,687.632996 711.342529,707.946838 722.761719,726.830627 
	C735.843323,748.463562 748.217224,770.526306 760.444580,792.668701 
	C769.381775,808.853149 778.201538,825.063782 784.717224,842.384460 
	C793.350220,865.333313 796.700623,888.854675 789.639343,912.825806 
	C784.755493,929.405273 774.698425,942.794128 761.481995,953.815308 
	C757.276123,957.322571 753.045105,960.820190 748.618164,964.036804 
	C742.720520,968.322021 736.501343,970.859680 729.270752,966.689819 
	C727.631348,965.744324 725.398743,965.369202 723.470825,965.453674 
	C705.825439,966.227295 688.286682,964.494507 670.729980,963.317017 
	C657.377441,962.421570 644.825317,967.232056 631.734375,968.390259 
	C612.516907,970.090515 593.367920,972.660339 574.238770,975.225159 
	C564.025330,976.594666 553.817627,978.310120 543.781189,980.623657 
	C530.022949,983.795044 515.990601,982.784973 502.156067,984.323425 
	C495.422699,985.072205 488.746765,986.024658 481.946411,986.279053 
	C460.653290,987.075623 439.372437,988.195129 418.083099,989.101379 
	C414.385803,989.258850 411.564423,991.500549 408.316101,992.698853 
	C400.571381,995.556030 393.450165,996.128906 387.407928,989.121887 
	C384.999725,986.329102 381.549316,987.008301 378.471832,987.419922 
	C360.134796,989.872253 341.732208,991.657227 323.231567,990.968079 
	C310.446320,990.491882 297.678101,989.267212 284.933990,988.046265 
	C266.025146,986.234680 247.084183,985.433655 228.100632,984.876587 
	C213.328262,984.443115 198.562302,983.429443 183.890564,981.015442 
	C175.526062,979.639282 167.016357,981.943176 158.579880,982.627869 
	C146.801514,983.583862 135.220535,985.923035 123.662643,988.329956 
	C118.840866,989.334045 114.351921,987.643127 110.040054,986.023499 
	C98.778740,981.793335 87.994118,976.672363 79.798134,967.383179 
	C72.210526,958.783508 69.302536,948.676636 69.894409,937.394165 
	C70.603233,923.882202 74.923225,911.342346 80.298477,899.107361 
	C84.586975,889.346008 89.697029,880.001404 94.888329,870.694702 
	C100.136398,861.286316 102.245537,850.966187 103.571945,840.375122 
	C104.682152,831.510315 108.901291,824.003540 114.946289,817.488464 
	C116.418655,815.901611 117.884689,814.297668 119.217094,812.594727 
	C121.436905,809.757690 121.398376,806.917480 119.303253,803.897644 
	C109.279083,789.449158 103.471703,773.253662 99.936119,756.174866 
	C99.141014,752.333923 99.981209,748.459106 101.538483,744.936523 
	C105.207886,736.636353 113.196915,737.741211 119.133560,743.423706 
	C122.525543,746.670532 124.936790,750.941833 128.722961,755.998413 
	C131.638199,714.527710 129.324631,674.235352 136.542236,633.470398 
	C131.708023,635.308960 128.366882,636.697876 124.948486,637.859436 
	C109.018387,643.272644 97.682457,635.377136 87.456741,624.657654 
	C82.207031,619.154480 77.655502,613.041382 72.904495,606.038391 
	C68.770248,611.725342 68.136162,617.661011 67.368431,623.432983 
	C66.846657,627.355774 66.869415,631.298523 69.267647,634.994385 
	C70.998436,637.661682 69.184441,639.359131 66.468025,638.890747 
	C58.905708,637.586670 51.252125,636.291565 47.031811,628.514709 
	C42.684105,620.503113 44.792427,613.016724 48.790020,605.759399 
	C51.737167,600.409119 55.884010,596.052429 61.407661,593.291321 
	C64.227180,591.881897 64.795174,590.203857 63.589481,587.322632 
	C57.931854,573.802673 56.763863,559.412109 57.511639,545.130066 
	C58.046181,534.920776 61.027180,524.822449 64.719162,515.122253 
	C71.381973,497.616516 80.778557,481.880157 94.578247,469.000427 
	C96.279633,467.412476 97.858383,465.387207 99.899666,464.524170 
	C107.321739,461.386139 109.720367,454.093536 113.973000,448.334320 
	C114.607780,447.474640 114.793938,446.474731 114.290169,445.505554 
	C107.701103,432.828705 111.828728,420.790894 116.802902,409.002441 
	C120.862282,399.381958 126.872635,390.942780 135.087509,384.368286 
	C147.959824,374.066406 164.743607,375.050171 179.461731,387.093964 
	C182.439865,389.530975 184.639694,389.645538 187.874374,387.954559 
	C195.413208,384.013519 200.103394,385.114655 205.945419,391.641022 
	C209.367432,395.463928 212.174850,399.747375 215.099976,404.564667 
	C220.347763,398.820984 225.502502,393.644165 230.127899,388.031158 
	C245.148865,369.802948 264.495789,357.216980 284.713776,345.767883 
	C312.703278,329.917969 342.812683,319.973846 374.505280,315.179443 
	C389.739685,312.874817 404.772705,308.188232 420.986511,309.880219 
M595.500061,801.438904 
	C588.265076,812.902222 583.542419,825.074829 584.080078,838.962402 
	C584.537781,850.785767 587.753113,862.701782 583.269226,874.421448 
	C583.212891,874.568787 583.259644,874.753052 583.242126,874.918335 
	C582.346313,883.349304 581.812012,891.838074 580.478088,900.199219 
	C577.392395,919.541687 573.913391,938.821411 570.607239,958.128845 
	C569.594238,964.044983 570.651123,965.200928 576.423096,964.306274 
	C590.062622,962.192139 603.615845,959.406067 617.424988,958.598755 
	C622.636047,958.294189 625.621399,957.399597 625.367615,950.761414 
	C624.911438,938.828979 627.977600,927.011353 627.836426,915.019897 
	C627.691528,902.710999 630.036804,890.535156 629.333252,878.159851 
	C628.659119,866.303101 635.920654,857.468811 642.381470,848.546448 
	C645.390991,844.390259 649.410706,841.095032 652.374207,836.801147 
	C659.676941,826.219910 657.322754,811.610352 646.823120,804.354309 
	C645.744568,803.609009 644.746521,803.771423 643.549622,803.838318 
	C639.748291,804.050842 637.875366,800.980591 639.825623,797.624207 
	C640.896667,795.780945 642.486938,794.231628 643.890747,792.590576 
	C652.328979,782.726074 661.673950,773.641052 669.273621,763.055603 
	C671.275269,760.267578 673.147766,757.429932 673.305298,753.512024 
	C669.588684,753.595276 666.640747,754.634094 663.916016,756.241882 
	C649.759766,764.595337 636.388245,773.729004 629.542969,789.674133 
	C628.498047,792.107971 626.126709,794.466614 623.188232,793.020813 
	C620.535400,791.715576 621.081177,788.795288 621.961243,786.320251 
	C622.237366,785.543701 622.741882,784.851257 623.102051,784.101196 
	C630.732849,768.208069 638.425659,752.339478 643.279602,735.299744 
	C643.626160,734.083191 644.271240,732.736084 642.728699,731.747192 
	C640.750366,732.042480 639.482788,733.424438 638.181335,734.663940 
	C626.034058,746.233032 617.714478,760.440735 610.993286,775.548279 
	C607.826477,782.666626 605.769348,790.223877 599.934509,795.875061 
	C598.402222,797.359192 597.296631,799.283936 596.000000,801.000000 
	C596.000000,801.000000 596.004883,800.995117 595.500061,801.438904 
M212.722809,504.310242 
	C213.128143,497.649353 214.032211,491.072662 216.065491,484.689972 
	C218.155441,478.129395 221.966385,475.266571 228.874313,474.794647 
	C233.793228,474.458557 238.561249,475.398529 243.140900,476.833130 
	C246.499969,477.885376 247.769608,477.030731 249.126465,473.946686 
	C256.830933,456.435120 264.284698,438.780212 274.857056,422.705902 
	C285.238434,406.921936 296.729736,392.102112 311.868317,380.490021 
	C320.106445,374.170898 328.903595,368.827393 338.834106,365.586121 
	C341.656494,364.664917 345.098053,364.420380 346.220947,367.571503 
	C347.305634,370.615570 343.578583,370.829346 341.726593,371.794464 
	C319.614471,383.318024 299.953827,397.803986 285.398773,418.408386 
	C282.236206,422.885376 279.646362,427.765686 276.768280,432.445221 
	C268.216095,446.350464 262.409760,461.320648 259.465729,477.374115 
	C259.061676,479.577423 258.451416,482.072723 261.242188,483.526459 
	C268.144012,487.121735 275.019409,490.767731 282.616638,494.767822 
	C287.959381,477.252441 295.237762,461.142883 304.707062,445.990112 
	C314.298218,430.642242 327.261505,418.752991 341.305359,406.903381 
	C342.451050,410.496277 340.718689,411.821930 339.501587,413.299408 
	C334.833435,418.966370 330.381073,424.790161 327.097748,431.388245 
	C314.876434,455.947632 309.042999,482.062012 308.453583,509.393707 
	C308.379913,512.810364 308.478516,516.300842 311.071167,519.257690 
	C316.998322,526.017273 323.142334,532.609497 328.314362,539.998413 
	C330.502472,543.124390 334.343750,544.777344 336.999084,543.276917 
	C341.573517,540.692139 345.968719,541.652466 350.464081,541.820374 
	C354.322235,541.964600 354.925476,540.074097 354.584473,536.871277 
	C353.034790,522.317017 354.596832,507.853821 357.382782,493.666779 
	C361.824921,471.046082 370.089783,449.599457 379.730835,428.700531 
	C381.020294,425.905426 382.429382,423.013885 385.936127,421.655060 
	C387.714386,424.046600 387.666595,426.567383 386.538635,428.805878 
	C384.933563,431.991180 384.426392,435.444794 383.366852,438.757904 
	C375.500122,463.356873 373.255676,488.611603 374.741486,514.250671 
	C375.320129,524.235596 376.480957,534.211060 381.725922,543.108032 
	C384.246704,547.383911 386.459076,547.813599 389.906006,544.417480 
	C391.988403,542.365723 394.065521,542.009216 396.692596,542.753235 
	C401.654358,544.158508 406.697174,545.296265 411.611450,546.845886 
	C418.122040,548.898987 419.293762,548.058777 418.744507,541.106567 
	C418.521912,538.289307 418.076355,535.476257 418.053223,532.658691 
	C417.809814,503.018982 423.510071,474.103180 428.883087,445.156799 
	C430.036865,438.940948 431.946045,432.898895 434.343262,427.036285 
	C434.924316,425.615204 435.818176,424.345428 437.686890,424.619843 
	C438.995941,424.812073 439.883087,425.669312 439.994843,426.915710 
	C440.398346,431.415863 442.820892,435.321716 443.348846,439.860870 
	C445.195740,455.740234 446.880768,471.603241 447.544952,487.603180 
	C448.249664,504.579285 448.889404,521.511414 447.436920,538.474854 
	C447.062225,542.850525 445.315765,547.189392 446.621124,551.861328 
	C451.040344,551.841248 454.246368,549.223816 457.732056,547.462158 
	C469.818878,541.353577 478.801056,532.447205 482.851807,519.152344 
	C485.597412,510.140961 486.535645,500.774200 486.578278,491.533569 
	C486.689819,467.367859 484.729889,443.324738 479.397186,419.662079 
	C478.858368,417.271301 478.000031,414.784698 482.809937,412.543427 
	C490.961823,441.438080 500.902618,469.270264 520.081299,492.718048 
	C526.097290,488.749817 531.597961,485.005493 537.225037,481.462067 
	C539.788757,479.847687 539.893066,478.130859 538.621704,475.617004 
	C537.755981,473.905182 535.973633,472.164429 537.163269,469.944366 
	C538.497070,469.798035 538.999634,470.481232 539.502075,471.142303 
	C544.192627,477.313934 544.190613,477.313507 550.950562,473.883026 
	C551.693420,473.506073 552.432678,473.113190 553.203491,472.801666 
	C556.669189,471.401154 557.315369,469.199066 556.061035,465.635071 
	C550.866882,450.877045 545.444031,436.212433 539.207825,421.860840 
	C534.940491,412.040405 529.978455,402.756500 521.594971,395.567841 
	C517.202637,391.801483 513.593262,387.110992 509.716003,382.761444 
	C508.464874,381.357910 507.473145,379.626801 509.110046,377.865845 
	C510.546295,376.320770 512.127441,377.256470 513.698975,377.883118 
	C519.646973,380.255005 523.980530,384.643707 527.827026,389.483337 
	C540.882324,405.909546 548.043152,425.337891 555.512878,444.585419 
	C558.431763,452.106628 561.131226,459.712982 564.024048,467.533051 
	C573.401062,464.425476 581.929565,461.128204 590.975281,459.535614 
	C597.570740,458.374390 602.421509,460.649292 605.830872,466.163269 
	C609.535339,472.154602 612.386353,478.516571 613.290405,485.600830 
	C615.395447,502.097595 613.815369,518.496094 611.972656,534.888367 
	C609.838928,553.869141 606.097351,572.486694 596.367737,589.168762 
	C590.992493,598.384949 588.597351,607.551758 588.811157,618.406982 
	C589.312683,643.871338 588.159058,669.363586 588.059875,694.846008 
	C587.987854,713.335449 587.803284,731.802856 586.292419,750.241272 
	C585.190552,763.688416 583.500061,777.005859 580.486206,790.209778 
	C576.420044,808.024170 573.143677,826.018799 564.289673,842.329102 
	C563.801758,843.227783 562.701111,844.195862 563.593811,845.479980 
	C572.460754,843.358582 577.109741,837.491699 577.780579,828.713562 
	C578.897156,814.102173 585.634705,802.174866 594.646667,791.156555 
	C597.253601,787.969299 600.822876,785.430786 601.963196,781.175903 
	C605.331360,768.608276 611.693848,757.472534 618.727905,746.718933 
	C623.919189,738.782410 629.478699,731.032837 637.639465,725.763367 
	C640.729675,723.767944 644.186523,721.841553 647.825317,724.449951 
	C651.413757,727.022461 651.802002,730.953857 650.852844,734.839966 
	C649.749878,739.356201 648.047058,743.722229 646.770813,748.200867 
	C645.752563,751.774109 643.584229,755.057678 643.618896,759.608521 
	C649.255798,756.286377 654.250061,753.015015 659.551147,750.355286 
	C662.256042,748.998047 663.571899,746.888489 663.319641,744.513123 
	C662.889587,740.464172 663.966919,736.612244 663.950439,732.635315 
	C663.849731,708.273499 660.092896,684.196411 658.416382,659.957642 
	C656.923706,638.377563 654.502258,616.834045 654.208313,595.207214 
	C653.892578,571.971619 651.081299,549.091736 647.094971,526.273438 
	C645.492859,517.102478 643.179504,508.022736 642.853943,498.664246 
	C642.792664,496.901947 641.907593,494.608093 644.332581,493.465668 
	C646.155212,493.987335 646.600830,495.471069 647.036987,496.889893 
	C651.052246,509.950470 653.685425,523.332886 656.162720,536.743469 
	C659.836121,556.628723 659.662842,576.847290 661.077820,596.921265 
	C662.774048,620.984497 664.056213,645.061157 667.144348,669.019897 
	C670.167542,692.474243 671.587769,716.072876 671.162415,739.743469 
	C671.100342,743.199585 671.662476,745.573486 675.754272,745.878235 
	C679.860779,746.184143 681.278015,748.914246 681.379333,752.768250 
	C681.507141,757.630127 678.884033,761.303833 676.410095,765.051941 
	C673.570740,769.353638 670.256714,773.422180 669.647949,778.795837 
	C668.627991,787.798706 665.643677,796.301025 662.961548,804.867493 
	C662.158936,807.430908 662.086121,809.571655 663.338989,812.013245 
	C667.157715,819.455139 666.817627,827.057373 663.894104,834.741638 
	C660.230164,844.371643 652.827637,851.361084 646.251648,858.729614 
	C640.932129,864.690125 639.709351,870.672241 641.422913,877.914062 
	C647.738953,904.606628 660.037048,928.314087 677.151550,949.626465 
	C681.004211,954.424011 683.221313,955.114441 688.524353,952.083191 
	C701.950623,944.408325 709.692322,932.048218 714.723938,918.044006 
	C720.110962,903.050659 724.847168,887.860229 727.755615,872.063599 
	C730.769104,855.696411 732.586975,839.611084 727.721069,823.330688 
	C723.517151,809.264893 718.686707,795.481628 711.347473,782.685791 
	C710.483337,781.179199 709.290771,779.544617 710.815369,777.455017 
	C714.170776,777.961182 715.531555,780.859985 717.230591,783.133057 
	C724.518982,792.883362 728.385559,804.234680 732.385132,815.566040 
	C736.460083,827.111084 737.271484,839.332397 740.356628,851.063843 
	C744.859680,868.186584 748.830750,885.396912 746.211609,903.270752 
	C744.273865,916.494446 738.753418,927.848999 726.814941,934.897278 
	C717.641235,940.313110 709.873657,947.786438 700.308167,952.584412 
	C699.747803,952.865417 699.245911,953.408630 699.613892,954.422791 
	C709.725769,955.440186 719.960815,956.301819 730.144592,957.573059 
	C734.536560,958.121277 738.209106,957.749084 741.690063,954.626465 
	C745.016418,951.642395 749.069092,949.477905 752.469727,946.564758 
	C766.662842,934.406189 778.328308,920.238647 781.460449,901.319153 
	C784.759460,881.391907 781.223083,861.928589 773.692505,843.276550 
	C767.275330,827.382507 759.742920,812.023010 751.094177,797.192688 
	C740.457886,778.954285 730.079468,760.564575 719.694275,742.181091 
	C713.885010,731.897888 707.829102,721.716736 702.692566,711.098633 
	C692.702393,690.447510 687.979126,668.040649 682.865173,645.902649 
	C674.961304,611.687927 669.730957,576.979309 665.579346,542.094910 
	C663.281433,522.786072 658.996094,503.800781 654.394531,484.892883 
	C651.352417,472.392853 646.915466,460.455383 641.842834,448.683685 
	C635.571594,434.130463 628.166199,420.241486 618.708191,407.490265 
	C610.661865,396.642242 601.585571,386.871399 591.401611,377.872223 
	C580.251587,368.019379 568.546204,359.103180 556.002686,351.216034 
	C542.070984,342.455994 526.499329,337.437073 511.137146,332.015533 
	C489.659271,324.435608 467.407349,320.362610 444.724213,319.328033 
	C428.270508,318.577637 411.813995,319.572876 395.351013,321.029724 
	C364.569214,323.753723 334.776123,330.075836 306.646698,343.071991 
	C290.475983,350.543121 274.658234,358.673584 260.712738,370.065735 
	C249.715652,379.049316 239.795471,388.950226 230.474274,399.699951 
	C219.295227,412.592194 208.930557,425.938965 200.859894,440.951263 
	C190.277756,460.635101 182.216721,481.401398 174.999283,502.525360 
	C166.705261,526.800293 160.280167,551.548523 154.769653,576.596191 
	C149.437881,600.831421 145.131180,625.226074 142.343399,649.847656 
	C137.836746,689.650208 137.598404,729.609497 139.378525,769.591858 
	C139.484131,771.963806 140.023300,774.316528 140.360703,776.678162 
	C140.809845,776.646851 141.258972,776.615540 141.708115,776.584229 
	C141.708115,775.024292 141.855682,773.447815 141.683182,771.907227 
	C140.826324,764.254272 141.182053,756.589722 141.903717,748.985779 
	C142.738068,740.194214 143.916473,731.323242 149.923553,724.207275 
	C152.318268,721.370544 155.329147,719.094849 159.504562,720.317017 
	C163.868271,721.594360 165.832535,724.615295 166.313263,729.119263 
	C168.309097,747.818848 171.082184,766.404968 175.370880,784.731262 
	C177.366791,793.260132 179.564590,801.386780 185.562241,808.624939 
	C197.759872,823.345459 205.915573,839.809143 205.688370,859.976196 
	C205.604675,867.405640 209.384399,873.196594 219.406052,869.468262 
	C215.186264,863.976868 211.388184,858.272827 210.181473,851.425964 
	C209.626907,848.279358 208.316071,844.057373 211.737564,842.292358 
	C214.883881,840.669250 216.704330,844.674988 218.958237,846.465393 
	C223.528244,850.095520 227.548935,854.687439 233.884247,855.701599 
	C234.552673,853.082275 233.055496,851.729736 232.225510,850.198486 
	C225.462234,837.720642 220.038589,824.660034 215.844162,811.133728 
	C205.809952,778.775269 203.473907,745.683960 205.466629,711.934570 
	C207.372391,679.658386 212.780029,647.849365 216.190048,615.787476 
	C217.598053,602.549194 220.844315,589.314148 216.825867,575.718933 
	C213.038879,562.906860 212.590897,549.427124 212.097992,536.137207 
	C211.716751,525.857422 210.878510,515.494446 212.722809,504.310242 
M228.218201,729.213684 
	C232.942657,735.718811 238.273987,741.807495 244.715485,746.503784 
	C266.103455,762.096924 289.901703,772.491638 315.854614,777.783691 
	C325.479401,779.746399 335.385925,779.867188 345.038116,781.396545 
	C360.514709,783.848755 375.820404,785.783325 391.633942,785.092773 
	C414.682343,784.086304 437.787842,784.850281 460.428162,779.038391 
	C474.573425,775.407227 488.943115,772.650269 503.089081,769.021484 
	C513.866272,766.256897 524.502686,762.903259 535.106873,759.514832 
	C549.575317,754.891479 563.580750,749.185791 576.326965,740.724731 
	C578.256531,739.443909 579.626099,738.140869 579.726562,735.638306 
	C579.966492,729.657898 580.633484,723.686646 580.683105,717.708008 
	C580.893311,692.390930 581.140991,667.070740 580.910767,641.755859 
	C580.851624,635.256470 580.172485,628.715027 580.668823,622.203552 
	C578.768738,622.101624 578.352966,623.148804 577.773804,623.882263 
	C562.111877,643.719971 544.811951,661.882446 523.362488,675.568604 
	C505.121460,687.207458 485.231201,693.416748 463.358521,692.170105 
	C460.430328,692.003174 457.590271,690.655823 453.989014,691.417847 
	C455.959412,699.121643 457.819702,706.636475 458.842529,714.335999 
	C460.545654,727.156433 461.545563,739.880981 456.187256,752.137817 
	C452.678406,760.164124 448.223053,767.618958 440.428619,772.244812 
	C428.563751,779.286438 418.059784,775.443787 408.180725,767.740417 
	C391.453857,754.697205 380.311646,737.919922 375.038696,717.387573 
	C372.826141,708.772034 371.204590,700.004700 369.228149,690.909668 
	C362.711731,694.982544 356.227631,697.751221 348.942108,698.503357 
	C328.900452,700.572510 310.038818,695.737732 292.401764,687.138916 
	C262.024689,672.328918 241.391129,648.259949 229.469360,616.663818 
	C228.538284,614.196167 227.934723,611.451294 225.656631,608.805603 
	C225.123062,616.490356 224.676208,623.279663 224.175278,630.065002 
	C223.220428,642.998779 223.120178,656.080200 220.964249,668.812378 
	C219.413315,677.971680 219.053680,686.984253 219.331589,696.094116 
	C219.680176,707.520508 221.992203,718.553223 228.218201,729.213684 
M230.276230,927.238831 
	C223.084198,916.222778 217.392380,904.362000 210.937607,892.930908 
	C207.839615,887.444641 206.308319,881.155579 202.439789,876.095337 
	C198.789398,871.320251 196.076767,866.136963 195.899216,860.088562 
	C195.657043,851.838501 195.775009,843.690369 192.617508,835.735657 
	C187.886795,823.817505 180.269394,813.711426 173.388214,803.121521 
	C172.034821,801.038757 170.262894,799.169312 169.676544,796.665161 
	C165.085541,777.058411 160.419418,757.473022 159.578903,737.213318 
	C159.440277,733.872131 159.397324,730.331421 157.823959,727.076965 
	C155.332031,727.943481 154.944702,730.103821 154.156021,731.825745 
	C150.845551,739.053345 149.603714,746.816040 149.401611,754.636841 
	C149.066162,767.617615 149.266068,780.611877 149.186371,793.600098 
	C149.176758,795.167358 149.940826,797.231262 147.980270,798.067566 
	C145.858246,798.972778 144.532471,797.134033 143.433777,795.788208 
	C137.639587,788.690613 131.906265,781.465332 128.437500,772.916565 
	C125.907700,766.681946 122.738274,760.859741 118.891052,755.437866 
	C116.459755,752.011475 114.312881,748.162964 110.302261,745.652771 
	C107.643692,748.526001 107.965652,751.596130 108.553780,754.738892 
	C112.290314,774.705811 119.790390,792.883118 133.766907,808.009399 
	C134.541122,808.847168 135.243683,809.895081 135.575623,810.969910 
	C136.470078,813.866150 135.046295,816.260559 132.282242,815.294556 
	C128.427094,813.947205 126.825073,816.158508 124.636452,818.152100 
	C120.380363,822.028687 117.371353,826.704651 114.769272,831.819885 
	C106.954231,847.182678 110.551102,862.881165 124.613724,872.797119 
	C128.538940,875.564819 133.177643,877.401367 136.838348,880.447083 
	C144.735428,887.017456 150.147202,895.373657 154.081772,904.988403 
	C162.212082,924.856079 169.981461,944.916016 180.168243,963.866760 
	C183.637390,970.320374 187.680954,975.035522 196.761047,975.378235 
	C216.371964,976.118408 236.016647,976.476746 255.615845,977.714417 
	C257.821564,977.853638 260.261444,978.473267 262.576538,976.674438 
	C261.567932,972.919495 259.425323,969.617188 256.790405,967.106201 
	C245.092239,955.958435 239.100647,941.112854 230.276230,927.238831 
M213.345123,769.174622 
	C214.994553,780.388977 217.500992,791.440247 220.547592,802.328552 
	C225.952591,821.645630 233.836777,839.937500 244.275116,857.123474 
	C247.122940,861.812317 245.549118,864.480591 240.023148,865.062744 
	C237.009155,865.380249 234.050873,864.873779 231.225189,863.668823 
	C229.143845,862.781372 227.017426,861.999512 224.333176,860.943176 
	C226.128616,865.496277 231.369461,868.714661 227.538666,873.592163 
	C224.433136,877.546265 218.902267,876.352844 214.302216,878.720642 
	C219.304413,890.609131 226.134628,901.179016 232.853302,911.906067 
	C234.118439,907.971436 234.619415,904.198181 235.533203,900.527588 
	C238.787750,887.454346 243.538834,874.926392 249.193481,862.693420 
	C257.717316,844.253357 264.980621,825.303894 271.356537,806.011780 
	C271.859894,804.488770 271.888245,802.242004 274.362915,802.072083 
	C275.574585,803.559875 274.799225,805.000916 274.503784,806.424866 
	C270.939484,823.604065 265.470337,840.158325 258.545929,856.277039 
	C255.204514,864.055115 249.853500,871.459656 249.413696,879.906921 
	C248.601288,895.510254 248.230759,911.216370 250.145416,926.823975 
	C250.353012,928.516418 250.110428,930.598389 252.593201,931.245789 
	C254.808029,929.356323 256.141235,926.889832 257.356445,924.341248 
	C265.663300,906.920166 273.261353,889.233276 278.805725,870.687012 
	C280.071198,866.453979 281.519409,862.201843 286.294525,859.535950 
	C297.174561,853.461670 307.355591,846.162781 318.562225,840.605591 
	C321.945343,838.927917 323.547241,836.259277 324.025330,832.338989 
	C325.051208,823.926575 326.613770,815.578308 328.021149,807.214722 
	C328.286926,805.635376 328.385559,803.801147 331.576843,803.099792 
	C333.749268,813.321350 329.556519,823.154236 329.575104,833.293030 
	C331.789032,833.283813 333.123962,832.339844 334.546509,831.501953 
	C351.902740,821.278625 369.176849,810.911865 386.963348,801.437256 
	C388.624420,800.552368 391.231262,800.082275 390.410004,797.362305 
	C389.670258,794.912476 387.263458,795.326599 385.305634,795.319519 
	C371.800690,795.270508 358.353363,794.536499 345.018555,792.234741 
	C317.660400,787.512573 290.211212,783.659119 264.869843,770.788574 
	C247.311020,761.870667 233.173874,749.661926 221.520981,734.100586 
	C217.974243,729.364197 215.431473,724.019958 212.008408,719.075684 
	C210.334793,735.640686 211.547302,751.963074 213.345123,769.174622 
M379.689819,829.691650 
	C376.279327,821.089478 376.655396,819.631348 382.865112,815.933167 
	C385.597565,814.305847 387.647247,811.532104 390.006897,809.278870 
	C387.126648,809.567322 384.765930,810.626770 382.551971,811.934631 
	C374.100159,816.927490 365.771576,822.132874 357.256378,827.013550 
	C343.415863,834.946411 330.084503,843.725098 316.004517,851.276794 
	C307.383087,855.900818 298.987305,861.033447 291.153351,866.989868 
	C289.273376,868.419312 288.357239,869.797241 288.723938,872.413879 
	C290.684509,886.403748 292.320709,900.420532 296.167236,914.095337 
	C300.869232,930.811035 308.345642,946.071167 318.886475,959.845154 
	C323.527863,965.910156 329.587036,968.504150 337.246735,967.531616 
	C350.175385,965.890076 362.720978,962.820251 374.912231,958.189941 
	C378.247864,956.923096 379.803680,955.203735 380.101044,951.367004 
	C380.998505,939.787781 381.363007,928.073059 385.429321,916.975220 
	C388.561188,908.427856 393.321503,906.313965 402.208344,908.736328 
	C413.613220,911.845032 424.304626,916.586609 434.778534,922.102661 
	C434.460297,921.230774 433.950104,920.658325 433.412506,920.112854 
	C419.058258,905.548828 407.748932,888.726196 397.805420,871.010864 
	C390.556915,858.096985 385.526306,844.115723 379.689819,829.691650 
M470.725830,887.100159 
	C465.026489,898.949158 457.647766,909.889709 451.060516,921.521667 
	C454.810211,922.907104 456.670074,921.004639 458.632080,919.576050 
	C466.217682,914.052734 474.356964,909.593689 483.214294,906.443481 
	C496.097717,901.861511 505.595123,906.802063 509.162201,920.057190 
	C511.197723,927.621277 512.789917,935.275269 513.116760,943.127930 
	C513.232483,945.908936 513.947449,948.257019 517.059265,948.550537 
	C531.142029,949.878662 545.223389,951.519775 559.051025,946.478882 
	C561.846436,945.459778 563.087585,943.914551 563.571106,941.282471 
	C564.922180,933.927612 566.445251,926.599976 567.607178,919.215515 
	C570.497375,900.847961 574.633606,882.680176 576.379150,864.126282 
	C576.678711,860.942383 576.852722,857.864746 576.023193,854.730103 
	C575.084534,851.183167 573.492371,850.155518 569.946289,852.001709 
	C563.633911,855.287964 556.511353,855.688416 549.652893,856.919312 
	C547.444214,857.315735 545.166321,856.443542 544.515198,853.958252 
	C543.984009,851.930908 545.711792,850.914612 547.295532,850.391968 
	C553.701172,848.278137 556.058594,842.856567 558.669800,837.374573 
	C560.752991,833.001160 559.462036,831.347351 555.150085,829.908997 
	C534.976746,823.179504 514.763184,816.565002 495.376556,807.651367 
	C491.304199,805.778931 486.854065,803.512085 481.421082,803.891968 
	C482.582672,808.054138 485.725922,809.057556 488.335663,810.605957 
	C493.827606,813.864441 495.339569,817.455750 493.643463,823.595154 
	C487.699402,845.110474 480.170746,866.060852 470.725830,887.100159 
M442.006989,616.462524 
	C446.819916,593.700745 456.046051,572.560486 467.055084,551.751770 
	C464.398285,551.297913 463.205444,552.013733 462.102264,552.676453 
	C456.633331,555.961670 450.539490,557.753235 444.635071,559.964783 
	C442.752838,560.669861 440.444214,561.728699 438.519684,559.798767 
	C436.566589,557.840271 437.854980,555.799561 438.505646,553.763000 
	C439.465149,550.759888 440.335632,547.763367 440.889709,544.613953 
	C443.278809,531.035034 440.916443,517.402405 441.628571,503.780853 
	C442.417847,488.682739 440.108337,473.584167 438.715546,458.516235 
	C438.528046,456.488098 438.035034,454.578979 435.265137,453.583954 
	C432.802185,458.245514 431.799225,463.016693 432.643372,467.782806 
	C434.058441,469.384674 435.628906,467.418518 436.702606,468.856506 
	C437.333954,470.893372 436.719818,472.470337 435.333313,474.236206 
	C430.256104,480.702789 427.865173,488.215027 427.478882,496.396484 
	C427.337830,499.383972 427.363220,502.398865 426.950714,505.350677 
	C424.822205,520.582092 423.630280,535.773682 427.426483,550.952454 
	C428.440857,555.008301 427.158417,555.763794 423.174622,555.696289 
	C416.189087,555.577942 409.917297,553.162720 403.468140,551.011475 
	C400.495453,550.019897 397.263885,548.469482 393.949860,550.700195 
	C385.464050,556.411926 379.498871,554.776550 374.634705,545.714294 
	C370.118500,537.300293 368.915131,528.110168 367.630127,518.842224 
	C366.716095,512.249939 367.601196,505.379852 365.247559,498.667816 
	C362.505768,500.263580 362.653656,502.647217 362.252777,504.631653 
	C359.627411,517.626892 360.089111,530.758606 360.759705,543.887573 
	C360.888580,546.411011 361.293732,550.096252 357.857544,549.379578 
	C350.391907,547.822632 343.671112,552.790588 334.729523,550.090515 
	C350.862518,575.531372 362.214264,601.371948 368.656128,629.892273 
	C391.124237,611.884583 414.556274,607.349731 439.859161,621.203979 
	C441.638092,620.259338 441.577576,618.658875 442.006989,616.462524 
M393.919281,838.172302 
	C390.803406,839.040161 390.785095,840.739075 392.049866,843.419861 
	C396.522125,852.899170 400.582031,862.644470 406.473267,871.315369 
	C416.168091,885.584534 424.593292,900.803589 436.863251,913.215149 
	C441.870941,918.280701 444.368164,918.149231 448.292542,912.426514 
	C463.398956,890.398376 473.144287,865.881287 481.520325,840.731750 
	C482.068237,839.086487 481.838257,837.885864 480.719757,836.238953 
	C477.949646,832.160095 475.521423,827.772827 474.716248,822.760376 
	C473.650208,816.123901 472.638214,809.478821 471.556244,802.537476 
	C469.025452,803.307678 467.865021,804.738464 466.662170,806.051025 
	C459.351776,814.027832 452.693420,822.507812 446.305359,831.254883 
	C440.562439,839.118469 436.823883,839.163757 429.711395,832.481262 
	C422.441498,825.650940 415.337372,818.644348 408.119110,811.758606 
	C405.912384,809.653503 403.883270,807.237427 400.540192,806.104126 
	C399.784576,814.824463 399.064789,823.088501 398.354462,831.353394 
	C398.115845,834.130066 397.398804,836.618591 393.919281,838.172302 
M146.796814,502.317169 
	C136.948151,507.953857 129.256088,506.915344 125.084961,499.542053 
	C122.798393,495.500061 122.507767,491.377319 123.769409,487.021240 
	C126.093063,478.998230 130.044098,472.632690 139.794647,472.589233 
	C139.279510,470.507996 139.052032,469.389648 138.725479,468.300995 
	C135.887329,458.838928 138.410889,453.341064 147.585297,449.892731 
	C150.450455,448.815857 150.456650,447.244507 150.449814,444.575897 
	C150.425385,435.042114 149.784836,428.538757 163.772720,427.668274 
	C164.564041,427.619049 165.480499,427.689667 165.984665,426.502960 
	C164.829773,424.856110 163.471817,423.185669 162.406204,421.345856 
	C160.042419,417.264648 160.060410,413.022675 162.442749,409.003510 
	C166.219208,402.632416 176.512924,398.589020 184.454193,400.140320 
	C193.636948,401.934174 197.330856,405.750702 199.141876,415.271027 
	C199.259293,415.888336 199.569427,416.468964 199.769058,417.010101 
	C209.821640,416.432617 211.848022,412.931793 207.394760,404.288086 
	C206.011993,401.604156 204.375443,399.110626 202.380478,396.853729 
	C197.658707,391.512146 194.962280,390.578705 188.985016,394.340973 
	C183.903168,397.539642 180.967758,396.447174 176.516800,392.798004 
	C160.733673,379.858002 146.639435,379.621704 132.782394,395.145355 
	C126.851738,401.789276 122.772476,409.577301 119.955261,418.062500 
	C116.674690,427.943237 115.319138,437.489136 122.510376,446.459534 
	C124.245445,448.623840 123.733727,450.962616 120.757851,451.976562 
	C118.299156,452.814240 117.097527,454.753418 116.075951,456.880615 
	C112.162315,465.029938 109.888817,473.688873 107.910378,482.473114 
	C105.753479,492.049744 107.296555,500.712677 113.807724,508.137970 
	C116.289734,510.968475 116.980392,513.950806 117.355843,517.598267 
	C119.460403,538.043884 124.840523,543.165588 143.122604,545.705139 
	C152.994522,547.076416 153.026276,546.820801 156.011078,537.203430 
	C156.257248,536.410156 156.668045,535.664978 156.882401,534.865356 
	C158.672653,528.186646 160.434814,521.500427 162.181381,514.907349 
	C158.724503,513.088379 155.583679,513.025879 152.413177,513.185791 
	C145.263855,513.546326 138.117950,514.006409 130.964554,514.231445 
	C129.195831,514.287048 126.892143,515.102600 125.495987,511.965210 
	C134.609375,508.990112 144.109421,509.717896 153.864639,508.152344 
	C152.023209,505.089813 153.540039,499.811981 146.796814,502.317169 
M119.460999,904.047974 
	C121.201088,899.362610 122.919182,894.670105 125.462181,890.333130 
	C126.956306,887.784973 126.631493,885.741699 123.999626,883.983337 
	C119.390755,880.904053 115.827713,876.676575 112.166023,872.584412 
	C110.132645,870.311951 108.913849,867.271423 105.877060,865.507263 
	C101.992599,871.241638 100.497826,877.684326 97.395973,883.346130 
	C90.330597,896.242310 84.932930,909.846252 81.163254,924.020325 
	C78.845787,932.734131 77.748604,941.700623 80.830276,950.589539 
	C84.726288,961.827515 93.451118,968.441833 103.635178,973.067139 
	C111.377869,976.583618 119.105545,980.747375 128.403870,978.831421 
	C139.131256,976.620972 149.903595,974.460388 160.923431,974.055176 
	C163.904617,973.945618 166.878601,973.449890 169.838806,973.015137 
	C172.734222,972.590027 173.396790,970.796997 172.280396,968.304504 
	C169.020523,961.026489 165.787766,953.733887 162.372971,946.528198 
	C155.825943,932.713318 150.127502,918.537170 144.153839,904.476074 
	C142.008774,899.426941 140.395920,893.804443 134.744080,891.134521 
	C133.034073,892.997742 133.246277,895.053772 133.197754,897.026917 
	C132.992813,905.360779 133.143768,913.710632 134.160385,921.968262 
	C136.153366,938.156738 138.314056,954.360596 147.747192,968.402222 
	C148.512878,969.542053 149.053741,970.789124 148.198563,972.116150 
	C147.373367,973.396545 146.063065,973.698853 144.678329,973.430847 
	C140.921692,972.703735 137.155518,971.999939 133.438202,971.100464 
	C119.646545,967.763367 110.848167,956.767456 110.830597,942.566589 
	C110.814278,929.379944 114.757133,917.009094 119.460999,904.047974 
M453.018890,726.547913 
	C453.284821,715.932373 450.414459,705.786743 447.819763,695.698364 
	C444.639435,683.332886 441.440338,681.448730 428.633575,681.900024 
	C426.303253,681.982178 423.968689,681.938599 421.637299,681.999695 
	C414.658051,682.182739 407.653656,681.753601 400.734741,683.235962 
	C397.325562,683.966309 394.839966,685.944092 395.209503,689.257446 
	C396.151337,697.702209 393.544189,704.878113 388.958191,711.714172 
	C387.948547,713.219177 387.290283,714.954529 385.766724,716.057495 
	C383.053558,718.021606 382.500824,720.650269 383.699463,723.569214 
	C391.038483,741.441040 400.299255,757.640076 419.083527,766.125671 
	C427.889832,770.103760 436.594391,768.545166 442.836914,761.072510 
	C450.984436,751.319397 453.655029,739.931519 453.018890,726.547913 
M131.380310,592.877869 
	C133.547638,591.635742 135.988159,590.701904 137.818558,589.079712 
	C140.600784,586.613953 144.651337,585.208496 145.609436,581.054810 
	C147.254395,573.923462 148.663284,566.737427 150.328949,559.611206 
	C151.104553,556.292908 150.710709,554.710815 146.726898,553.810852 
	C136.740021,551.554749 126.305199,549.983337 118.807129,541.748718 
	C117.802750,540.645630 116.174500,540.341858 114.618645,540.412048 
	C106.143295,540.794067 97.623360,540.779785 89.208176,541.710449 
	C82.799759,542.419128 76.432793,543.859131 70.387947,546.499756 
	C66.539734,548.180786 64.443581,550.422974 65.050117,554.812073 
	C65.618080,558.922058 66.096336,563.054321 66.374275,567.192871 
	C67.434410,582.978394 76.697342,592.282166 90.751587,597.292908 
	C104.571747,602.220337 117.976585,600.183594 131.380310,592.877869 
M517.564209,808.856506 
	C521.380798,810.316223 525.055542,812.223633 529.626587,812.840515 
	C527.598755,802.456360 526.123535,792.365784 529.519287,781.936462 
	C532.743591,783.809753 532.055969,786.185242 532.172791,788.218262 
	C532.574097,795.203796 533.393127,802.119995 535.120300,808.914307 
	C536.329834,813.672363 538.393738,817.342590 543.833801,818.599487 
	C548.659302,819.714539 553.358093,821.542725 557.952637,823.443298 
	C561.954468,825.098755 563.806213,824.350281 564.920349,819.906860 
	C570.056458,799.424072 573.735840,778.653931 577.562500,757.911194 
	C577.880859,756.185669 578.161194,754.259949 576.509277,752.572266 
	C574.707031,752.384033 573.068298,753.241272 571.490845,754.087219 
	C552.908936,764.052673 532.836121,770.115662 512.859497,776.389954 
	C503.834686,779.224487 494.877045,782.347473 485.576843,784.238586 
	C482.167877,784.931763 480.988068,787.075806 481.151031,790.370422 
	C481.274597,792.868408 480.831940,795.581970 484.225433,796.297974 
	C495.730560,798.725403 505.993286,804.432129 517.564209,808.856506 
M280.491272,891.925049 
	C276.869110,900.850403 273.748383,910.024414 269.481842,918.630310 
	C265.327606,927.009644 263.065063,936.591064 255.255157,942.924561 
	C252.640396,945.044922 253.519394,947.513245 255.399094,949.922852 
	C261.732513,958.041382 267.989044,966.220337 274.218231,974.419312 
	C278.536713,980.103333 280.099365,980.137268 284.631836,974.322876 
	C290.161957,967.228943 294.417206,959.267944 299.606110,951.980530 
	C302.247467,948.270813 301.935852,945.799866 300.079865,942.265259 
	C292.757263,928.319946 288.044250,913.509460 285.664764,897.914429 
	C285.044067,893.846619 285.404358,889.500366 283.127319,884.751404 
	C282.129700,887.525330 281.462708,889.379883 280.491272,891.925049 
M572.471680,507.900269 
	C575.091248,502.191528 576.199829,496.216644 575.774841,489.936371 
	C575.409668,484.540344 573.937805,483.606384 568.830200,484.991455 
	C561.625244,486.945190 555.550659,491.141632 549.228577,494.740601 
	C532.751709,504.120361 518.233032,515.877014 506.647339,531.096130 
	C503.977417,534.603394 505.028168,536.327820 508.314972,538.015137 
	C513.204407,540.525146 518.474854,541.322815 523.827087,540.978027 
	C546.160278,539.539246 561.216370,527.107727 572.471680,507.900269 
M403.831238,642.216003 
	C392.724335,643.175354 383.750092,648.709229 375.372650,655.507141 
	C374.187439,656.468933 373.217041,657.611267 373.216095,659.270447 
	C373.212097,666.473206 373.214355,673.675964 373.214355,681.178955 
	C396.482697,673.371399 420.393921,673.271545 444.992828,674.760132 
	C443.514191,668.252747 442.124023,661.980042 440.621307,655.734436 
	C440.450378,655.024109 439.773865,654.243286 439.118317,653.870422 
	C428.409241,647.778076 417.780457,641.407288 403.831238,642.216003 
M232.464569,494.062103 
	C230.489578,496.126068 230.372299,498.860321 229.830963,501.432007 
	C227.085175,514.476013 228.126648,527.573975 229.487808,540.641602 
	C230.675674,552.045471 234.533035,554.296875 245.732101,550.559448 
	C246.361435,550.349365 246.979675,550.090942 247.576096,549.799683 
	C262.444427,542.540649 268.574188,529.318665 271.825958,514.162231 
	C272.302032,511.943268 271.309265,510.348541 269.325928,509.236877 
	C263.673981,506.068970 258.262146,502.376953 252.369980,499.759857 
	C246.238358,497.036407 240.215164,493.511658 232.464569,494.062103 
M438.316681,792.121399 
	C425.355682,792.837341 412.313934,792.829651 399.263763,796.467468 
	C413.077881,807.548828 424.865479,820.487305 438.646729,831.933594 
	C448.262115,817.306030 459.536957,805.114685 471.023590,793.097412 
	C472.013550,792.061707 472.930054,790.729614 471.907837,788.403687 
	C461.236542,790.705017 450.309174,792.391785 438.316681,792.121399 
M468.871552,935.465027 
	C476.940796,935.597534 483.374146,943.308289 480.839172,951.604004 
	C479.774902,955.086853 476.453644,956.502502 474.146179,958.803528 
	C472.285248,960.659180 470.552063,958.154114 468.737183,957.680420 
	C466.115601,956.996094 463.441711,957.208923 460.789398,957.444519 
	C459.174957,957.587952 458.470093,958.588562 458.692749,960.208618 
	C459.255035,964.299255 461.095154,967.606140 465.211609,968.804993 
	C469.516235,970.058533 473.937439,970.967468 478.355377,971.761963 
	C483.939697,972.766235 489.901398,975.121582 493.819855,968.247009 
	C494.320221,967.369202 495.796295,967.078003 496.761414,966.427551 
	C498.294769,965.394165 500.155029,964.222168 500.397797,962.453125 
	C501.660980,953.250366 507.171082,944.494812 503.246399,934.207947 
	C501.964966,936.149963 500.484222,937.270569 498.234528,936.101624 
	C493.097900,933.432495 487.594971,931.689636 483.005585,927.727173 
	C474.033630,919.980774 460.897308,923.354248 456.625214,934.049622 
	C455.699921,936.366211 456.760529,937.398804 459.030151,937.844482 
	C462.430878,938.512329 465.145905,936.614624 468.871552,935.465027 
M173.326065,483.826660 
	C175.808289,477.272736 178.290497,470.718811 180.942322,463.717041 
	C175.792786,463.238800 173.093460,465.560211 170.980087,468.954987 
	C170.136078,470.310730 169.028915,471.290039 167.322586,471.015137 
	C165.819366,470.772888 164.782822,469.638489 164.884293,468.256348 
	C165.424637,460.896606 159.977646,458.476257 154.858185,455.694916 
	C151.727432,453.994019 148.835556,454.046600 146.133347,456.511200 
	C143.345612,459.053802 142.589417,462.102509 144.161438,465.537842 
	C145.617996,468.720856 147.430054,471.684143 150.039948,474.122894 
	C151.379898,475.375061 152.729156,476.879913 151.476593,478.904633 
	C150.272034,480.851715 148.351547,481.260895 146.229065,480.756256 
	C144.295883,480.296631 142.410538,479.587433 140.458389,479.265594 
	C135.814438,478.499939 132.839203,480.611633 131.178009,484.909729 
	C129.518005,489.204712 127.738029,493.639771 132.020096,497.304535 
	C135.634949,500.398285 139.693039,498.986023 143.165588,496.873383 
	C145.968094,495.168365 148.316864,492.712708 150.847824,490.567535 
	C153.820969,488.047638 156.085251,488.697296 156.924835,492.447113 
	C157.248474,493.892578 156.942505,495.496979 157.357437,496.900635 
	C158.535080,500.884460 158.785828,505.555237 164.202652,507.331726 
	C168.101196,499.983551 169.547974,491.852570 173.326065,483.826660 
M395.353271,954.159607 
	C397.567230,957.661072 399.111725,961.995361 402.907410,963.887634 
	C407.435822,966.145081 410.733368,969.279236 413.424896,973.414856 
	C415.755859,976.996460 418.666443,977.252197 422.357208,974.902405 
	C427.696503,971.502991 431.744232,966.661011 437.327087,962.867004 
	C434.421875,961.692261 432.393494,962.449890 431.121948,964.263672 
	C428.519562,967.975708 425.623596,967.570862 422.023102,965.905640 
	C419.073395,964.541565 416.682159,962.576904 414.312225,960.500305 
	C411.188019,957.762878 410.897186,954.387390 412.913513,951.048462 
	C415.751343,946.349304 417.601868,940.337158 424.767700,940.433838 
	C425.387390,940.442200 426.138458,940.720032 426.596130,941.131226 
	C429.896027,944.096375 432.979218,942.501404 436.276886,940.987671 
	C432.523163,928.754150 422.768738,924.385071 412.023285,921.021667 
	C409.185730,920.133545 407.518433,920.534424 405.582825,922.768372 
	C400.888214,928.186462 397.050720,934.220032 392.691254,939.865173 
	C390.075836,943.251831 386.515503,945.993225 388.624146,951.326660 
	C390.922668,951.013855 393.358551,951.196960 395.353271,954.159607 
M139.361832,613.104187 
	C141.313019,606.731689 141.428955,600.082642 142.847672,592.313599 
	C121.467148,606.044556 100.167351,610.701172 77.688782,596.585022 
	C81.672127,604.310364 86.548431,610.502441 91.790985,616.554321 
	C102.492531,628.908020 114.144394,633.534607 130.098557,625.903198 
	C136.097382,623.033752 139.433838,620.464600 139.361832,613.104187 
M321.703430,688.829956 
	C323.887146,689.051392 326.090881,689.056091 328.040283,687.966797 
	C329.523468,687.138062 328.598907,684.330139 331.322510,684.133301 
	C315.156250,681.638306 301.563141,674.029907 288.178589,665.827576 
	C274.277832,657.308899 263.041534,646.266602 255.097000,631.980286 
	C246.612427,616.722717 238.918915,601.086060 232.938965,584.776978 
	C227.835846,587.882629 228.447861,591.890930 229.984070,596.723450 
	C231.859360,602.622559 235.065979,607.987305 236.833481,613.775879 
	C241.866501,630.258972 250.686539,644.352478 262.522675,656.542542 
	C278.640686,673.142578 297.662750,684.806885 321.703430,688.829956 
M157.342834,446.096375 
	C159.510391,452.942017 162.847839,454.519043 169.298172,451.686371 
	C172.570770,450.249237 175.112106,448.058960 177.117355,444.985809 
	C179.859970,440.782684 182.065979,440.853424 185.159485,444.717987 
	C186.054092,445.835602 186.625961,447.407806 188.832352,447.234955 
	C193.043030,439.651917 197.324677,431.941040 201.745667,423.979187 
	C198.643799,423.333740 197.623383,425.284637 196.200562,426.549194 
	C194.832962,427.764771 193.240784,429.367004 191.414780,427.966919 
	C189.536667,426.526794 190.877060,424.617950 191.640671,422.992676 
	C196.999985,411.585815 193.237411,405.804901 180.579346,406.043549 
	C179.082123,406.071777 177.546432,405.982086 176.097382,406.280823 
	C171.825378,407.161560 168.219055,409.048035 166.792328,413.573212 
	C165.472153,417.760468 167.839905,420.463715 170.585266,423.137634 
	C172.549103,425.050385 174.822556,426.330597 177.252563,427.434082 
	C178.795258,428.134613 180.521988,428.821686 180.400208,430.834930 
	C180.252762,433.272461 178.035309,433.514099 176.311142,433.688080 
	C172.845520,434.037842 169.345291,434.074005 165.857407,434.168060 
	C157.104889,434.404144 155.338684,436.656067 157.342834,446.096375 
M313.068634,963.373047 
	C310.969696,960.244629 308.870758,957.116211 305.987762,952.819153 
	C304.579498,961.696289 303.519470,969.159790 303.146210,976.741089 
	C302.975159,980.215271 303.999756,981.808716 307.757843,982.133789 
	C324.041321,983.542175 340.320923,983.264404 356.595428,982.331177 
	C364.053223,981.903503 371.483948,980.974060 378.918884,980.195435 
	C380.956635,979.981995 383.072144,979.577393 382.567657,976.654968 
	C381.839661,972.437683 381.079803,968.225952 380.235321,963.457092 
	C369.886505,967.076111 359.959595,970.719971 349.471924,972.462341 
	C336.232941,974.661987 323.154266,976.721802 313.068634,963.373047 
M75.941010,507.359711 
	C72.385574,514.099609 69.731613,521.137512 68.348534,529.661011 
	C81.004890,521.846741 94.007080,518.702209 107.990448,519.793335 
	C109.443649,519.906738 110.546295,519.318176 110.989349,517.758484 
	C111.491737,515.989990 111.013191,514.687195 109.795502,513.253784 
	C104.187332,506.651978 100.089188,499.381653 100.766144,490.291046 
	C101.004898,487.084869 100.029831,484.762207 96.661163,483.888947 
	C93.449516,483.056427 90.652283,482.870850 88.292000,486.091400 
	C83.556549,492.552856 79.534431,499.388428 75.941010,507.359711 
M656.123718,935.316650 
	C649.063782,924.019287 642.465698,912.493347 638.842468,899.445557 
	C637.714966,906.927307 637.003601,914.187622 636.575012,921.464600 
	C636.018005,930.920227 635.654175,940.387817 635.282837,949.853210 
	C635.206177,951.806519 634.972168,954.417480 637.708496,954.561035 
	C645.320679,954.960388 652.980103,955.687439 660.502441,953.564575 
	C663.464172,952.728699 663.756287,951.000305 662.979675,948.249878 
	C661.680298,943.648193 658.838562,939.945679 656.123718,935.316650 
M555.406555,967.982178 
	C562.319824,966.646484 558.444641,960.655273 560.998657,957.047363 
	C557.780640,955.827209 555.325623,956.244385 552.912598,956.653076 
	C546.683716,957.708191 540.432190,958.653015 534.104980,958.409119 
	C528.638611,958.198425 523.187561,957.608704 517.725403,957.254761 
	C516.112671,957.150330 513.953552,956.703186 513.424316,958.748230 
	C512.041809,964.090576 511.012146,969.524292 509.792664,975.148010 
	C525.507324,974.105042 540.383545,973.168518 555.406555,967.982178 
M430.282440,956.377502 
	C433.445404,954.252747 437.067993,955.142212 440.499054,954.894775 
	C442.586853,954.744202 444.025940,956.083984 444.462250,958.033203 
	C445.148468,961.098999 446.359131,964.359924 445.888214,967.304810 
	C445.013184,972.777100 447.897339,974.774292 452.050507,976.424438 
	C455.170929,973.358093 456.065491,970.512878 453.270752,966.738953 
	C450.780670,963.376465 451.630554,959.030762 451.339294,955.121216 
	C451.163208,952.758057 453.066528,951.120117 455.594086,951.141113 
	C460.366119,951.180725 465.249268,949.868225 469.873779,951.968201 
	C471.555634,952.732056 472.777618,952.410828 473.759277,950.990845 
	C474.800873,949.484192 475.971436,947.913818 474.964020,945.960938 
	C474.158936,944.400269 472.543945,942.776672 471.047394,943.473999 
	C465.584747,946.019226 459.840179,943.567871 454.374359,944.879700 
	C450.728943,945.754578 448.968567,944.182983 448.853821,940.572388 
	C448.763977,937.744873 448.702911,934.914673 448.715942,932.086121 
	C448.728394,929.380554 446.826141,928.743713 444.775696,928.514221 
	C442.616699,928.272644 441.326599,929.790833 440.693939,931.558167 
	C439.917725,933.726562 442.096161,934.723755 443.086151,936.136658 
	C446.154449,940.515747 445.933838,946.357361 442.065369,947.279297 
	C435.414154,948.864502 428.822144,951.814575 421.624115,949.925537 
	C419.643860,952.494324 418.351105,954.707520 421.558075,957.599548 
	C424.868958,960.585327 427.160675,959.162903 430.282440,956.377502 
M130.622772,942.786438 
	C127.502998,930.517883 127.164635,917.914917 126.186783,904.511353 
	C121.153458,917.031006 118.032097,929.159424 117.537300,941.792908 
	C117.065834,953.830688 125.632072,963.437927 136.418564,963.670166 
	C134.527267,956.970947 132.640579,950.288025 130.622772,942.786438 
M502.704742,479.766632 
	C501.897156,478.510742 501.157104,477.204346 500.264893,476.011810 
	C499.161560,474.537140 497.899323,472.932068 495.796295,473.520081 
	C493.430145,474.181732 493.997925,476.396423 493.921967,478.136536 
	C493.727448,482.590881 493.675140,487.051758 493.458374,491.504761 
	C492.997620,500.970642 492.049042,510.385284 489.508820,520.993225 
	C497.566345,512.783142 504.445862,505.408783 512.205872,498.955139 
	C514.295959,497.216919 512.961426,495.390472 511.828949,493.681458 
	C508.897583,489.257843 505.992859,484.816589 502.704742,479.766632 
M319.949829,554.556396 
	C323.450562,559.717285 327.608246,564.377258 330.964539,569.725525 
	C329.527496,564.513611 326.062988,560.050293 327.547119,554.323608 
	C327.677704,553.819702 327.155487,553.077820 326.806946,552.528687 
	C318.321503,539.158691 309.314941,526.237671 297.149078,515.801697 
	C292.915344,512.169983 289.067230,508.598114 283.354340,513.107727 
	C296.709320,525.496338 309.323578,538.673279 319.949829,554.556396 
M297.625366,472.060181 
	C294.140991,479.077820 291.705627,486.501740 289.156586,493.882690 
	C288.560364,495.609070 287.391632,497.566467 288.987366,499.034271 
	C292.797791,502.539154 296.867706,505.762024 301.735046,509.858002 
	C301.972931,491.306519 304.837006,474.457062 307.809479,457.424072 
	C302.651825,460.987457 300.450165,466.292206 297.625366,472.060181 
M85.959473,527.375000 
	C79.625252,529.171631 73.939743,532.194641 68.797783,536.303162 
	C66.543579,538.104309 65.468231,540.176880 66.445145,543.359741 
	C81.632027,536.221130 97.779694,535.890137 113.873764,535.658997 
	C113.469818,526.470764 112.171478,525.215942 104.014099,525.046265 
	C98.139961,524.924133 92.385529,525.514038 85.959473,527.375000 
M734.264343,916.727783 
	C742.388245,902.664612 739.739319,887.681519 738.123657,872.749451 
	C734.791565,892.605469 728.631348,911.476440 718.237427,929.955933 
	C726.476562,927.939575 730.432251,922.942322 734.264343,916.727783 
M512.358154,509.856598 
	C506.291809,515.181213 500.228516,520.508789 495.364960,526.971802 
	C499.749603,531.403503 500.899750,531.531982 504.609406,526.876831 
	C515.278076,513.488953 527.923889,502.407898 542.607056,493.654510 
	C545.567932,491.889374 546.169250,490.082428 543.432861,487.291077 
	C531.947021,492.971893 522.437256,501.209259 512.358154,509.856598 
M65.784233,604.481140 
	C66.378853,602.553955 69.065086,601.474731 68.160393,598.884888 
	C58.367546,599.736938 48.811581,615.719543 52.945095,624.355286 
	C54.149025,626.870483 55.913013,629.119446 59.643227,629.317139 
	C60.882877,620.949524 61.446350,612.600891 65.784233,604.481140 
M219.143600,525.486450 
	C219.181686,528.976562 219.133453,532.470520 219.290497,535.955261 
	C219.383484,538.018372 219.131363,540.850037 222.415619,540.377319 
	C225.158768,539.982483 224.653534,537.661682 224.353088,535.598206 
	C224.019333,533.305969 223.785309,530.979858 223.758774,528.665649 
	C223.648453,519.046692 223.112823,509.397583 225.339951,499.905090 
	C225.753326,498.143127 225.814545,496.450470 223.565323,495.996429 
	C220.975388,495.473602 221.277298,497.833740 220.699326,499.200684 
	C220.387344,499.938538 220.456497,500.830536 220.302917,501.643433 
	C218.873840,509.208008 219.213058,516.859802 219.143600,525.486450 
M297.785248,975.334656 
	C297.385620,971.752319 299.627899,968.182739 298.074432,963.731445 
	C294.502289,969.866150 290.540527,974.693970 286.625488,979.594421 
	C288.694244,981.415588 290.838470,980.381775 292.694153,980.865173 
	C296.893890,981.959351 298.163116,980.011169 297.785248,975.334656 
M241.290878,903.108154 
	C240.450958,909.200562 239.190506,915.238892 239.283920,921.443970 
	C239.338593,925.075623 240.824951,927.881531 243.956421,931.344727 
	C242.447891,920.126343 242.794632,910.041443 241.713089,899.980835 
	C241.581345,900.778625 241.449600,901.576355 241.290878,903.108154 
M661.259766,788.565125 
	C661.432861,787.804138 661.916504,787.027588 661.156067,786.307678 
	C652.511597,792.084778 650.838318,796.984070 656.530884,800.004700 
	C659.440247,796.999756 660.040283,793.016968 661.259766,788.565125 
M98.515564,479.118256 
	C105.151871,479.462769 101.723145,474.125061 103.281250,471.578552 
	C100.390015,472.126556 98.941223,474.248840 97.094948,475.835297 
	C95.401527,477.290436 95.862953,478.351318 98.515564,479.118256 
M563.557312,628.027893 
	C566.387512,625.642700 565.438477,623.290649 563.720337,620.795105 
	C559.012939,623.978516 558.848633,626.217407 563.557312,628.027893 
M451.529755,636.431641 
	C452.117249,636.925232 452.981445,637.967468 453.473938,637.127869 
	C454.309021,635.704102 454.069153,633.927917 453.427063,632.393982 
	C453.058868,631.514404 452.042084,631.363281 451.343475,631.942871 
	C449.907379,633.134216 450.383942,634.561462 451.529755,636.431641 
z"/>
<path fill="#000000" opacity="1.000000" stroke="none" 
	d="
M301.086884,255.078613 
	C292.874512,249.772064 289.816895,243.459106 292.579498,237.158325 
	C295.662842,230.125854 302.681091,227.370697 309.023499,223.204483 
	C305.507141,221.343262 302.237579,222.646652 299.148834,222.585434 
	C290.571930,222.415466 282.208405,220.531662 274.084229,218.426102 
	C265.488708,216.198425 256.886658,217.481247 248.382446,216.230103 
	C233.413620,214.027878 218.393524,212.010620 205.053818,204.028076 
	C202.174301,202.304977 199.422470,200.378464 197.615570,197.489761 
	C193.979767,191.677185 188.683670,187.229523 184.740295,181.698288 
	C178.427322,172.843292 179.056030,163.925888 184.030304,154.478165 
	C190.213959,142.733459 200.424454,135.436401 210.924698,128.355743 
	C220.745132,121.733490 231.407562,116.715225 243.448822,112.618156 
	C239.452179,109.367241 236.001587,106.322906 236.641647,101.018478 
	C237.077057,97.409912 238.255905,94.221130 240.648148,91.535439 
	C244.514359,87.195000 251.049820,85.880928 255.630844,88.417961 
	C262.183899,92.047134 263.041107,95.825897 259.806427,107.047394 
	C262.029175,108.337357 263.527374,106.600044 265.168243,105.704384 
	C268.518219,103.875847 271.606995,101.654602 275.127106,100.038231 
	C284.801208,95.596100 294.688354,94.904243 304.831604,97.643349 
	C319.652802,101.645691 334.207458,97.829552 348.870819,96.509750 
	C363.770905,95.168633 378.692230,94.030968 393.621399,93.069931 
	C397.246094,92.836594 399.289398,92.175529 400.176147,88.076660 
	C401.591766,81.533096 402.401367,74.956635 402.693115,68.327400 
	C403.329163,53.873268 403.680206,39.406742 404.192291,24.946861 
	C404.283234,22.378668 405.380707,20.087936 408.179596,20.073151 
	C411.939301,20.053291 415.081207,21.625076 415.887390,25.773657 
	C417.323608,33.163944 417.392914,40.668549 417.460236,48.162098 
	C417.591187,62.738285 419.623383,76.993652 424.608612,90.748245 
	C425.170166,92.297539 425.773987,93.909042 427.337494,94.817390 
	C428.858765,95.701187 430.455231,96.195969 431.958801,94.890724 
	C433.769531,93.318840 434.694580,84.968628 433.193604,82.855637 
	C432.058929,81.258331 431.707764,79.591461 431.679443,77.706245 
	C431.632233,74.562859 432.048157,71.708389 435.135742,69.972115 
	C437.670990,68.546417 439.692474,69.736809 441.473206,71.324310 
	C444.019714,73.594452 444.538330,76.926849 443.177521,79.574188 
	C439.827972,86.090553 445.861969,90.571068 446.376343,96.249779 
	C446.545715,98.119484 451.396606,100.032196 453.139343,97.755035 
	C458.921356,90.199959 467.646332,90.423805 475.323120,89.216072 
	C503.840088,84.729675 532.572571,83.163826 561.405518,85.994415 
	C564.980469,86.345375 568.499512,87.266136 573.016296,88.102905 
	C569.398376,84.043373 569.736938,79.827560 569.865967,75.720261 
	C569.962769,72.638550 568.955078,71.056961 565.665161,71.008507 
	C561.843384,70.952209 558.028564,70.496193 554.205994,70.400253 
	C548.626526,70.260201 545.110291,67.532837 544.747437,62.844440 
	C544.380615,58.103855 546.632446,55.674618 552.626770,54.455257 
	C554.251587,54.124744 555.905212,53.857841 557.557678,53.754463 
	C566.400513,53.201256 567.992004,51.915909 569.575439,42.997143 
	C570.285156,38.999889 571.620911,35.806381 576.263733,35.778225 
	C580.662842,35.751549 583.721069,38.958096 583.785706,42.480228 
	C583.974854,52.790119 590.707764,54.635944 598.660461,55.732361 
	C600.428101,55.976074 602.191223,56.694775 603.806641,57.496689 
	C606.235962,58.702698 608.586304,60.192402 608.197144,63.477749 
	C607.834290,66.540642 606.026611,68.624992 603.328125,69.985519 
	C600.036621,71.645058 596.480103,71.119240 593.007080,71.163055 
	C590.450439,71.195320 588.332764,71.568108 588.108521,74.763618 
	C587.689453,80.733177 586.197021,86.217758 579.961609,89.702629 
	C583.497803,92.033707 586.696777,93.012184 589.833191,93.770569 
	C603.129578,96.985703 616.424072,100.596405 627.759277,108.344284 
	C636.752747,114.491547 647.355896,118.854660 652.942993,129.486267 
	C656.836060,136.894241 657.528442,145.398911 652.467773,152.075897 
	C643.740967,163.589844 633.171814,173.112350 620.542603,180.309677 
	C615.779602,183.024063 611.553345,186.781296 606.625916,189.088074 
	C587.931396,197.839951 568.511658,204.619339 548.386230,209.338379 
	C545.419922,210.033890 541.999512,209.739395 539.772827,212.345535 
	C539.657349,214.292313 541.092346,215.097153 542.038696,216.203278 
	C547.690918,222.809830 547.395264,231.101196 541.168152,237.283020 
	C534.678162,243.725754 526.202942,246.470474 517.863159,249.330338 
	C512.989075,251.001755 507.948639,252.198105 502.960663,253.524078 
	C499.921204,254.332031 498.251251,255.771835 498.012299,259.325684 
	C497.600739,265.446136 494.406708,268.466675 489.494171,268.378662 
	C484.540161,268.289917 483.001129,266.250977 481.709717,257.586273 
	C474.747314,258.545990 467.760132,259.515472 460.770966,260.470551 
	C454.837646,261.281342 448.923035,262.623322 442.910187,262.200653 
	C437.931488,261.850708 436.489777,264.506287 436.206451,268.746307 
	C435.810791,274.668365 437.033081,280.587189 435.447083,286.562622 
	C434.428558,290.400238 433.008179,293.307159 428.929871,293.511322 
	C424.844513,293.715851 423.062744,290.666199 422.508057,287.122314 
	C421.477631,280.539337 418.090790,274.591949 417.547119,267.884735 
	C417.314301,265.012756 415.422394,263.993866 412.665955,264.147186 
	C407.180878,264.452179 401.693420,264.843933 396.203461,264.910126 
	C371.049500,265.213409 345.902710,265.093292 320.972839,261.114105 
	C314.231323,260.038055 307.653107,258.148346 301.086884,255.078613 
M573.293579,58.111298 
	C569.128296,61.723083 563.615845,59.602962 558.347168,61.357475 
	C562.864014,62.774956 566.772278,61.966537 570.650024,61.906967 
	C573.241943,61.867157 573.975708,60.223595 574.633423,57.915939 
	C577.820923,56.383026 578.745667,52.742832 576.697510,49.026310 
	C575.318298,52.003994 574.510742,54.966057 573.293579,58.111298 
M276.949402,141.453918 
	C278.431458,140.399216 279.887115,139.304916 281.400146,138.296722 
	C287.616333,134.154678 294.847229,132.701004 301.809296,130.456818 
	C314.600647,126.333611 327.181000,121.533035 340.046936,117.673828 
	C346.108490,115.855644 351.819672,113.002609 357.981079,111.683060 
	C374.470978,108.151535 391.243530,106.967255 408.052979,106.916260 
	C430.145447,106.849251 452.297760,106.464790 474.024048,111.698463 
	C482.118958,113.648460 489.271179,117.470482 495.422791,122.980171 
	C499.201355,126.364449 499.062561,128.801346 495.261475,132.112015 
	C492.469482,134.543762 489.354340,136.604477 485.908966,139.185852 
	C490.854462,138.434875 496.232758,135.437073 498.412720,132.488785 
	C501.503448,128.308746 501.127075,125.135925 497.348724,121.469666 
	C490.308655,114.638481 481.592621,111.174332 472.342255,108.674652 
	C460.220825,105.399155 447.648956,105.300453 435.332489,103.382072 
	C428.305328,102.287529 421.145935,102.010986 414.038086,101.471474 
	C398.909302,100.323174 383.806671,100.924301 368.703888,102.137253 
	C354.276917,103.295929 339.835175,104.292641 325.587311,106.986153 
	C322.103943,107.644669 318.754181,107.683556 315.227661,106.990936 
	C297.877228,103.583244 280.873322,102.907120 265.388672,113.785233 
	C263.292358,115.257927 260.600769,115.865143 257.858398,116.176025 
	C252.229889,116.814079 246.806152,118.447395 241.492676,120.454170 
	C229.741882,124.892151 219.274490,131.600616 208.821518,138.417923 
	C196.104614,146.711746 190.153854,158.179626 191.258270,173.337189 
	C191.421463,175.576813 192.422256,177.284271 193.479172,179.219421 
	C195.749146,183.375610 199.723206,186.146622 201.878220,190.258743 
	C204.647232,195.542450 208.983917,199.235916 214.272034,201.264526 
	C228.817017,206.844223 243.950485,209.989670 259.586304,209.837082 
	C265.317261,209.781158 270.860687,210.199341 276.341339,211.849060 
	C294.996368,217.464401 313.916687,215.218353 332.807037,213.651917 
	C333.407166,213.602127 334.138733,213.420151 334.068298,212.248062 
	C329.647858,211.871399 325.179565,211.593948 320.736633,211.092331 
	C308.339905,209.692688 295.748840,210.856750 283.448578,208.188583 
	C271.468597,205.589905 260.150635,201.356659 250.070038,194.292328 
	C245.591125,191.153580 241.437393,186.296280 241.644409,181.367401 
	C241.963501,173.770584 243.605072,165.564163 250.483749,160.424805 
	C258.982697,154.074890 267.219299,147.337250 276.949402,141.453918 
M563.294739,116.222656 
	C553.838562,112.303970 543.721741,110.921898 533.780945,109.250175 
	C521.021545,107.104446 508.076569,106.030609 495.191925,104.682190 
	C491.700653,104.316826 488.138672,104.626793 484.609161,104.626793 
	C490.026337,107.431305 495.391388,110.027054 499.987061,113.863640 
	C509.075806,121.451088 511.694763,132.010620 500.515015,140.024734 
	C494.573608,144.283768 488.497589,148.236877 480.819489,149.024323 
	C474.750427,149.646774 469.141907,156.261215 469.250122,162.263626 
	C469.366425,168.713318 467.754456,174.714432 465.790009,180.776627 
	C464.219116,185.624420 461.176422,189.817398 459.219879,195.326141 
	C470.207947,196.015915 480.405609,198.295639 490.590820,195.931763 
	C508.690033,191.731125 526.312012,185.756775 544.227600,180.880783 
	C561.759705,176.109177 576.733643,167.173004 588.507080,153.652557 
	C597.963440,142.792969 596.711365,134.548981 586.563171,128.037582 
	C579.388550,123.434074 572.026489,119.388382 563.294739,116.222656 
M372.993591,116.391281 
	C367.627258,117.523186 362.154694,118.296448 356.913116,119.849434 
	C334.927551,126.363373 313.679749,135.212936 291.342590,140.638763 
	C289.917816,140.984833 288.562378,141.518509 287.273438,142.417023 
	C281.023071,146.774170 274.575836,150.851593 268.371490,155.271149 
	C263.367371,158.835754 258.341370,162.451736 253.810043,166.577560 
	C247.917221,171.943054 246.486893,180.531113 250.310074,184.925323 
	C252.943619,187.952179 256.063599,190.511642 259.619934,192.393631 
	C272.616455,199.271240 286.454315,202.675125 301.194855,203.169998 
	C309.808838,203.459183 318.442932,203.982574 327.043823,205.215958 
	C334.811218,206.329803 342.753906,206.078339 351.822357,205.622665 
	C347.254486,202.410553 343.679657,200.064240 340.289185,197.476456 
	C333.920959,192.615952 330.275330,186.118439 331.181549,178.085297 
	C332.136108,169.623322 337.469391,163.816238 345.128052,160.583801 
	C347.871307,159.425980 349.907867,158.408356 351.360687,155.639359 
	C352.905823,152.694519 355.671478,150.913513 359.307037,152.068024 
	C361.841522,152.872879 363.939545,154.450180 363.869568,157.347687 
	C363.778564,161.115540 361.417145,163.938126 357.992157,164.547867 
	C350.207245,165.933777 349.657867,172.652557 347.314758,178.010361 
	C346.480835,179.917267 347.533722,182.002884 349.061920,183.450516 
	C356.500244,190.496613 366.035339,192.773956 376.561035,196.082047 
	C374.063568,193.035492 372.421143,191.180786 370.942505,189.203613 
	C362.467285,177.870834 363.707458,165.509521 367.163605,152.917984 
	C370.221741,141.776566 374.928741,131.754501 384.884888,124.903603 
	C387.967072,122.782730 390.739899,120.026321 390.932922,115.538124 
	C385.074432,114.812973 379.497406,116.093513 372.993591,116.391281 
M451.473267,136.056290 
	C447.395233,131.911987 443.361145,127.723267 439.228943,123.633682 
	C432.881104,117.351288 426.221954,111.846046 416.249146,114.034004 
	C414.183838,114.487106 411.924255,114.269043 409.776489,114.091187 
	C403.632782,113.582397 398.474731,114.443657 396.855164,121.718498 
	C396.556763,123.059021 395.162964,124.145302 394.313080,125.375397 
	C391.811310,128.996246 388.131775,131.345703 384.925385,134.217102 
	C379.647980,138.943176 377.856262,145.503311 375.461975,151.918243 
	C369.646576,167.499298 370.064056,181.334915 384.404541,193.777298 
	C390.350769,198.936462 396.563812,200.520706 404.062103,199.419876 
	C416.863495,197.540512 429.667114,195.445755 442.701019,196.589371 
	C446.838593,196.952393 450.624969,195.711899 452.581390,192.042038 
	C462.100952,174.185333 467.906952,155.340820 451.473267,136.056290 
M582.952393,100.401611 
	C580.425293,100.192734 578.082703,99.535248 575.922852,98.092552 
	C569.889465,94.062508 562.884827,94.444366 556.117249,94.180115 
	C553.462036,94.076439 550.899902,95.553459 552.708191,98.959061 
	C555.351074,103.936417 566.926392,107.291443 572.163391,104.641685 
	C572.927795,108.507607 576.983948,110.752373 579.200256,110.791740 
	C586.816101,110.926987 588.219666,119.276894 594.329102,120.841965 
	C602.629517,133.377167 605.367981,142.350525 595.826233,155.669113 
	C588.651733,165.683411 578.667114,172.579391 568.553467,179.473450 
	C562.097900,183.873947 554.874878,185.631210 547.879944,187.367630 
	C537.372437,189.975998 527.139832,193.536621 516.578857,195.922913 
	C513.767090,196.558212 510.650696,197.122086 507.791199,199.296295 
	C510.666534,200.342392 512.933594,201.499771 515.335938,201.979767 
	C523.017151,203.514450 530.329956,207.902084 538.645630,204.782867 
	C543.154175,203.091705 547.904785,202.156830 552.620911,201.107422 
	C560.261230,199.407364 565.414185,193.334412 571.825195,189.448990 
	C572.318665,189.149918 572.808289,188.358917 572.805176,187.799347 
	C572.762329,180.173264 579.440308,180.861465 583.544739,178.229782 
	C586.093018,181.292984 585.135437,184.811905 586.706665,187.960037 
	C592.542847,187.485947 598.266052,185.955658 603.204651,183.070328 
	C618.136780,174.346466 632.882263,165.386856 644.034058,151.554169 
	C650.801270,143.160141 648.035278,130.529922 638.069397,126.325607 
	C634.893188,124.985657 631.707947,126.704765 628.829590,125.153473 
	C622.574524,121.782288 616.710449,117.796638 609.948547,115.234428 
	C600.546448,111.671814 593.161438,104.245224 582.952393,100.401611 
M380.499542,220.231308 
	C354.163086,218.904373 330.866394,227.941238 307.879822,240.445724 
	C311.064697,244.400467 314.667053,244.705673 317.965179,245.436783 
	C331.498657,248.436905 345.299011,249.330582 359.082001,249.687546 
	C374.884766,250.096817 390.707672,249.804260 406.520966,249.692001 
	C412.320679,249.650833 413.215027,248.656555 411.546844,243.240707 
	C409.349396,236.106522 406.576721,229.149979 404.072906,222.109406 
	C403.447968,220.352081 402.446594,219.096497 400.404510,219.599472 
	C394.140259,221.142380 387.790375,219.781525 380.499542,220.231308 
M442.118317,223.511475 
	C439.658234,229.801636 439.760101,236.495163 439.113220,243.061096 
	C438.864471,245.585632 439.510773,247.992310 442.789398,247.651688 
	C449.662964,246.937546 456.513550,246.002457 463.278046,245.169846 
	C463.330475,234.426270 464.995361,232.818222 475.633362,232.645508 
	C478.285492,232.602448 480.941254,232.677322 483.590118,232.569351 
	C486.997742,232.430435 487.377991,229.751114 487.588959,227.256561 
	C487.744629,225.415680 488.525879,222.709793 485.659149,222.387070 
	C478.285400,221.557022 471.192017,218.361877 463.570953,219.684540 
	C461.886078,219.976959 460.252167,219.949570 458.679901,219.279053 
	C454.652832,217.561676 450.513611,218.282730 446.402130,218.712601 
	C444.058868,218.957581 442.225311,219.913727 442.118317,223.511475 
M431.721558,245.190948 
	C432.451813,233.632721 435.247742,222.387238 437.282928,211.082275 
	C436.511932,210.674377 436.102783,210.297699 435.655487,210.244980 
	C427.258453,209.255325 419.137970,211.481644 410.925964,212.525681 
	C407.772675,212.926575 408.310730,215.341003 409.206879,217.544968 
	C412.206635,224.922455 415.780273,232.132385 418.020569,239.734650 
	C420.338531,247.600418 424.580475,255.036667 424.085632,263.665497 
	C423.919800,266.557587 425.362946,268.941864 427.896027,271.529083 
	C430.805176,262.836090 429.044678,254.099197 431.721558,245.190948 
M480.533325,121.984169 
	C471.522461,117.832893 461.870483,116.401192 452.136139,115.409378 
	C449.947113,115.186348 447.007629,114.132683 445.873718,116.817490 
	C444.821899,119.307945 446.430511,121.754044 448.428436,123.350578 
	C454.623016,128.300644 459.033295,134.693314 463.463562,141.121597 
	C466.153168,145.024200 470.618011,145.121353 472.922455,141.053726 
	C475.108551,137.195007 478.442261,134.998169 481.899170,132.695099 
	C484.306488,131.091293 488.361816,130.232468 488.167694,127.013809 
	C487.973267,123.789902 483.786713,123.592491 480.533325,121.984169 
M512.967468,234.532730 
	C519.478149,235.397003 524.317627,231.656540 529.282959,228.448364 
	C531.257690,227.172409 530.808472,225.451187 529.239502,223.840225 
	C524.298035,218.766602 510.885132,216.562729 504.413605,219.818085 
	C503.503479,220.275925 502.526001,220.721207 502.432770,221.849045 
	C502.162659,225.117386 501.133179,228.658051 502.039734,231.584427 
	C502.789246,234.003876 506.562286,232.395752 508.873505,233.154236 
	C509.977020,233.516403 511.079620,233.881516 512.967468,234.532730 
M489.818268,97.671455 
	C507.419067,98.136192 524.847046,100.740364 543.703003,102.727890 
	C540.145630,100.578766 536.226440,102.485847 535.355103,98.677956 
	C534.388245,94.452370 539.569458,96.123093 540.922119,93.749634 
	C528.767395,90.670189 484.216370,92.802307 477.826324,96.775879 
	C481.628540,97.073303 485.260162,97.357376 489.818268,97.671455 
M414.055115,92.899071 
	C415.531250,92.728256 416.897797,92.050560 416.543976,90.449959 
	C414.859497,82.830147 412.989746,75.251282 411.185913,67.657852 
	C409.381378,73.834244 408.812378,79.919601 407.764435,85.921318 
	C406.582642,92.689476 406.395111,92.656731 414.055115,92.899071 
M362.483307,202.033386 
	C366.463196,203.307297 370.424469,204.979721 376.160065,202.258423 
	C367.303253,200.413162 360.235565,197.710876 353.336029,194.523972 
	C346.073639,191.169479 340.162415,186.803864 339.447876,177.992310 
	C339.442230,177.922653 338.948456,177.892578 338.586029,177.826370 
	C337.763702,181.068039 338.448761,183.937378 340.100647,186.850266 
	C344.925140,195.357544 353.179260,198.754395 362.483307,202.033386 
M453.507141,209.095444 
	C450.828430,209.755005 447.302826,207.597839 444.505646,212.796143 
	C454.106995,210.457336 462.272339,214.350357 470.787445,213.277344 
	C473.657562,212.915680 476.283478,213.402985 478.994354,214.543991 
	C483.836365,216.581985 488.724243,216.367157 494.803528,213.496185 
	C482.053101,212.020248 470.732117,210.698715 459.407288,209.411133 
	C457.762451,209.224121 456.099121,209.199707 453.507141,209.095444 
M484.447083,240.799454 
	C480.507233,240.277679 476.613007,238.707870 472.008942,240.037842 
	C482.049744,244.333435 506.543579,245.167267 509.827789,241.306396 
	C504.658539,237.942947 497.138885,243.489609 493.168976,235.838577 
	C491.021729,239.406326 488.312103,240.469208 484.447083,240.799454 
M589.253052,60.418140 
	C586.459106,59.814682 583.665222,59.211224 580.615906,58.552616 
	C582.479858,63.603001 592.523682,66.122818 599.625488,63.703724 
	C597.083984,60.561108 593.271545,61.477951 589.253052,60.418140 
z"/>
<path fill="#000000" opacity="1.000000" stroke="none" 
	d="
M195.123718,133.484222 
	C189.686340,135.019867 186.346191,132.616211 184.059311,128.470291 
	C181.450653,123.741013 180.287811,118.503487 179.868057,113.177528 
	C179.562592,109.301476 177.716721,108.356415 174.242935,109.099121 
	C169.692322,110.072052 165.137314,111.067337 160.541382,111.774727 
	C154.586136,112.691338 150.263504,109.915627 149.099091,104.744568 
	C148.040390,100.043091 150.821823,95.738182 156.183640,93.663483 
	C160.735367,91.902237 165.574966,91.557106 170.307251,90.677933 
	C176.124939,89.597099 176.650513,88.692978 176.195633,82.687698 
	C175.856720,78.213516 175.698807,73.699532 175.869965,69.218918 
	C176.126251,62.510269 180.238541,58.621071 186.605835,58.602615 
	C192.846024,58.584530 196.564087,62.091835 197.264206,68.699936 
	C197.684402,72.666039 198.137451,76.631302 198.426727,80.607780 
	C198.653198,83.720940 200.124191,85.156601 203.259537,84.782562 
	C205.731964,84.487602 208.197769,84.116974 210.677216,83.905273 
	C216.839035,83.379166 222.312317,87.255920 222.911682,92.497360 
	C223.439575,97.113770 218.547119,102.114227 212.907578,103.109123 
	C200.693436,105.263847 200.467514,102.027824 201.927963,117.024994 
	C202.548691,123.399117 202.711121,129.915894 195.123718,133.484222 
z"/>
<path fill="#000000" opacity="1.000000" stroke="none" 
	d="
M328.844788,44.048080 
	C338.601593,45.577572 344.911896,53.938114 343.486603,62.912205 
	C341.906464,72.861351 331.926178,80.844849 322.971619,79.322777 
	C316.595978,78.239059 307.944366,69.378021 307.338074,63.310753 
	C306.734985,57.275391 312.916290,48.873138 320.210754,45.847290 
	C322.838165,44.757401 325.532623,43.926811 328.844788,44.048080 
M332.537598,61.375645 
	C333.389557,61.742218 334.334564,62.659443 335.108398,61.495110 
	C335.719666,60.575397 335.137115,59.589108 334.562500,58.775909 
	C333.444885,57.194229 330.923737,56.826214 330.618652,54.607758 
	C330.200897,51.569786 328.343781,52.031590 326.070984,52.553581 
	C329.225311,54.757404 327.977112,59.646591 332.537598,61.375645 
z"/>
<path fill="#000000" opacity="1.000000" stroke="none" 
	d="
M255.584045,293.199341 
	C245.087387,293.322723 239.867828,289.277313 238.179062,280.096466 
	C236.891510,273.096710 241.237137,265.277283 247.854034,262.687500 
	C256.372681,259.353394 264.726349,261.716370 268.950623,268.654968 
	C273.537201,276.188751 270.384766,286.489349 262.060425,290.819489 
	C260.156219,291.810059 258.033203,292.379883 255.584045,293.199341 
M258.639771,285.386200 
	C264.793884,280.270874 265.777802,273.877441 260.968872,270.251892 
	C256.996277,267.256866 252.202057,267.651978 248.247681,271.300293 
	C244.901291,274.387665 244.086884,279.611786 246.806107,283.651001 
	C249.676193,287.914368 253.770081,287.452515 258.639771,285.386200 
z"/>
<path fill="#000000" opacity="1.000000" stroke="none" 
	d="
M543.913818,278.690430 
	C537.291931,286.427216 530.168701,286.410553 525.799194,278.964081 
	C522.958252,274.122559 523.901550,269.672455 528.711243,265.226746 
	C532.312500,261.898010 537.771240,261.244537 541.616028,263.681885 
	C545.429443,266.099335 546.866455,271.570892 544.982361,276.573395 
	C544.748657,277.193848 544.411560,277.775299 543.913818,278.690430 
M531.471008,273.092041 
	C531.084412,275.443665 531.379578,277.480621 534.254517,277.810455 
	C536.486511,278.066559 538.096252,276.990540 538.656189,274.791351 
	C539.110962,273.005127 539.234741,271.130371 537.201904,270.084808 
	C534.494751,268.692352 532.897705,270.109711 531.471008,273.092041 
z"/>
<path fill="#000000" opacity="1.000000" stroke="none" 
	d="
M655.363403,183.604279 
	C648.818298,183.681091 644.412964,179.805252 644.001465,174.042831 
	C643.679382,169.532532 647.721069,164.436707 652.278931,163.606400 
	C657.367371,162.679443 662.120422,165.865097 663.487976,171.119080 
	C664.669373,175.657562 661.621582,180.519882 655.363403,183.604279 
z"/>
<path fill="#000000" opacity="1.000000" stroke="none" 
	d="
M633.499023,81.914558 
	C634.434814,88.643860 632.177246,93.570862 627.770203,95.124466 
	C622.545776,96.966202 617.832214,94.791557 615.670166,89.541824 
	C613.512390,84.302338 615.395325,78.892090 620.263123,76.344780 
	C624.766174,73.988335 630.208679,76.149689 633.499023,81.914558 
z"/>
<path fill="#000000" opacity="1.000000" stroke="none" 
	d="
M260.630127,57.788670 
	C267.859619,57.939716 271.345795,61.233746 271.073578,67.250992 
	C270.842896,72.350044 265.623810,77.111877 260.309723,77.127731 
	C257.064026,77.137421 254.919952,75.399864 253.753052,72.633690 
	C252.248688,69.067596 251.034729,65.325478 254.112640,61.877323 
	C255.787720,60.000759 257.709320,58.414745 260.630127,57.788670 
z"/>
<path fill="#000000" opacity="1.000000" stroke="none" 
	d="
M330.502930,310.798706 
	C324.218109,308.265350 321.473663,304.456970 322.227417,298.930511 
	C322.812561,294.640320 325.158997,291.545776 329.746643,290.722321 
	C335.681549,289.657043 340.339813,292.327271 341.844330,297.646423 
	C343.217804,302.502289 340.300842,308.080475 335.257477,310.292511 
	C333.845734,310.911713 332.409363,311.201965 330.502930,310.798706 
M330.042755,304.502533 
	C331.164825,304.938080 332.310242,305.040344 333.393463,304.466888 
	C335.643799,303.275574 336.276520,301.294952 335.491180,299.031982 
	C334.841614,297.160217 333.318970,296.009796 331.242798,296.502167 
	C329.011810,297.031189 328.106934,298.724762 328.192535,300.963287 
	C328.237671,302.141846 328.468201,303.256073 330.042755,304.502533 
z"/>
<path fill="#000000" opacity="1.000000" stroke="none" 
	d="
M247.817047,248.673889 
	C248.412170,257.096832 242.671661,262.808624 236.629547,260.310272 
	C232.408707,258.565002 230.596100,255.233200 230.927414,250.856369 
	C231.258621,246.480988 233.566666,243.165741 237.974808,242.378387 
	C242.630981,241.546768 245.875031,243.970993 247.817047,248.673889 
z"/>
<path fill="#000000" opacity="1.000000" stroke="none" 
	d="
M360.385498,289.566681 
	C356.004883,292.121735 352.649872,291.325287 350.362610,287.265472 
	C348.221252,283.464569 349.487427,278.861084 352.980988,276.758392 
	C356.236206,274.799164 360.865723,275.891571 363.067444,279.368011 
	C365.617859,283.395020 364.078705,286.627136 360.385498,289.566681 
z"/>
<path fill="#000000" opacity="1.000000" stroke="none" 
	d="
M515.243530,256.841125 
	C516.759583,257.984955 517.743286,259.082245 518.038696,260.625092 
	C518.759583,264.389343 517.831116,267.604065 514.364563,269.527008 
	C511.605164,271.057678 508.905396,270.503693 506.760559,268.135620 
	C503.770111,264.833984 504.764740,261.505646 506.799622,258.165833 
	C508.965271,254.611526 511.829010,255.097076 515.243530,256.841125 
z"/>
<path fill="#000000" opacity="1.000000" stroke="none" 
	d="
M532.399109,710.360474 
	C534.409424,704.444275 533.119202,698.320740 535.748352,692.929382 
	C536.252686,691.895142 536.418823,690.700684 536.867310,689.633240 
	C537.404907,688.353821 538.256042,687.236450 539.813904,687.379639 
	C541.679810,687.551086 542.297607,688.984924 542.250244,690.591309 
	C542.122986,694.906067 542.022461,699.232544 541.604614,703.524475 
	C541.283752,706.820007 540.564209,710.083984 539.895081,713.335938 
	C539.373474,715.870728 538.319702,718.652161 535.472717,718.647461 
	C532.331238,718.642334 532.844971,715.366760 532.330750,713.233398 
	C532.142273,712.451599 532.297913,711.586914 532.399109,710.360474 
z"/>
<path fill="#000000" opacity="1.000000" stroke="none" 
	d="
M523.438110,703.385254 
	C522.604309,707.187805 521.906433,710.588806 521.118591,713.968750 
	C520.593628,716.220947 519.058105,717.476257 516.780579,717.101990 
	C514.247009,716.685608 513.789429,714.684387 514.305298,712.532532 
	C516.077759,705.139404 517.934875,697.766357 519.785095,690.392090 
	C520.175232,688.837280 520.944519,687.500000 522.836121,687.862793 
	C524.587708,688.198669 525.088684,689.666443 525.192810,691.236389 
	C525.459534,695.259888 524.620605,699.136841 523.438110,703.385254 
z"/>
<path fill="#000000" opacity="1.000000" stroke="none" 
	d="
M562.100342,700.664490 
	C560.705078,702.964722 559.360779,704.808533 556.709778,706.476440 
	C555.015137,700.594727 556.114807,695.486755 558.090820,690.648254 
	C559.040771,688.322083 560.937988,689.516846 561.848022,691.139954 
	C563.491943,694.072083 563.339233,697.199219 562.100342,700.664490 
z"/>
<path fill="#000000" opacity="1.000000" stroke="none" 
	d="
M138.790161,855.813293 
	C145.076523,849.770935 146.669113,841.699707 149.872833,834.450378 
	C150.761459,832.439514 149.811172,830.962830 148.635635,829.457214 
	C146.272491,826.430298 144.095734,823.251892 142.697205,819.664429 
	C139.325485,811.015320 144.313644,804.895081 153.435120,806.325806 
	C158.915741,807.185486 164.189987,808.569214 168.608932,812.135254 
	C170.253571,813.462463 172.123093,814.760315 171.631958,817.698608 
	C167.635086,818.884888 164.282867,816.458191 160.786392,815.444336 
	C158.379166,814.746399 155.958313,814.256470 153.527878,813.740967 
	C152.212784,813.462036 150.813629,813.174683 149.849380,814.449951 
	C148.838242,815.787292 149.804672,817.020874 150.363281,818.166016 
	C153.823242,825.258606 159.304886,830.616150 165.781570,834.817139 
	C170.608658,837.948059 174.209534,842.307007 178.457672,846.001709 
	C179.409241,846.829346 180.056824,848.137451 180.536667,849.346558 
	C181.309174,851.293091 180.556015,853.073853 178.983429,854.213928 
	C177.036774,855.625183 175.906815,853.900330 174.963470,852.585632 
	C169.842636,845.449219 161.341721,842.808350 154.736313,836.132812 
	C153.102310,841.973633 152.117203,846.813416 150.059708,851.313782 
	C146.290802,859.557556 140.751831,865.857178 131.871109,868.626038 
	C130.328461,869.106995 128.571655,869.248535 126.960991,869.084167 
	C124.398468,868.822693 122.450096,867.107483 122.172188,864.679871 
	C121.869690,862.037537 124.555717,861.793396 126.396797,861.386047 
	C130.814728,860.408325 135.229538,859.541138 138.790161,855.813293 
z"/>
<path fill="#000000" opacity="1.000000" stroke="none" 
	d="
M350.789124,958.902710 
	C338.929871,966.220398 325.550201,963.792480 319.911530,953.563293 
	C315.122803,944.875916 318.164795,928.739502 325.923431,923.350037 
	C336.597412,915.935425 349.219543,918.271362 357.266022,925.630798 
	C362.155243,930.102478 362.328461,936.678467 360.998688,942.497131 
	C359.573761,948.732239 357.134277,954.981445 350.789124,958.902710 
M353.136047,948.509338 
	C356.937134,941.565063 356.981049,932.710205 353.233856,928.783875 
	C349.246582,924.605835 336.756195,923.093262 331.130493,926.107178 
	C323.315887,930.293823 320.210602,943.719910 325.176544,951.742188 
	C327.536499,955.554565 330.874512,957.608276 335.388336,957.888428 
	C342.910065,958.355286 348.526917,955.161133 353.136047,948.509338 
z"/>
<path fill="#000000" opacity="1.000000" stroke="none" 
	d="
M595.997559,801.003174 
	C605.793152,795.599243 616.101929,793.312195 627.233643,795.757446 
	C631.412537,796.675476 634.880066,798.544434 635.943787,802.941772 
	C637.024536,807.409119 634.036865,809.883484 630.843018,812.328064 
	C628.268066,814.299011 625.359985,815.995361 623.301514,818.901550 
	C625.989441,823.046814 630.146118,825.277893 633.756226,828.108887 
	C634.801147,828.928284 636.025940,829.563110 636.926392,830.511963 
	C638.494202,832.164001 639.516235,834.176819 638.058167,836.350403 
	C636.651917,838.446960 634.477722,837.948120 632.640991,837.113464 
	C627.852112,834.937256 624.055725,831.508057 620.934875,827.289917 
	C619.767883,825.712646 619.157715,823.674438 616.999329,822.542480 
	C613.391724,824.212402 609.663391,825.982056 605.896423,827.665222 
	C603.678772,828.656128 601.383728,829.155823 599.399597,827.187683 
	C598.222717,826.020203 596.940063,824.690430 597.379395,822.865845 
	C597.858398,820.876770 599.482300,820.109863 601.427307,819.697327 
	C611.418091,817.578613 619.535706,811.756836 627.764954,806.182434 
	C628.106689,805.950989 628.195435,805.346069 628.688354,804.317932 
	C622.891541,800.934021 616.757019,802.029053 610.837585,802.715210 
	C607.251343,803.130981 603.788208,804.587463 600.262024,805.548035 
	C596.858521,806.475098 594.928162,805.690369 595.941711,801.333374 
	C596.004883,800.995117 596.000000,801.000000 595.997559,801.003174 
z"/>
<path fill="#000000" opacity="1.000000" stroke="none" 
	d="
M349.155151,941.918091 
	C346.197174,946.207031 343.258026,949.925354 337.212677,949.372131 
	C346.379242,947.222473 344.212677,938.923279 346.477478,933.147827 
	C351.632080,933.778442 352.093689,935.244019 349.155151,941.918091 
z"/>
<path fill="#000000" opacity="1.000000" stroke="none" 
	d="
M326.272461,947.422974 
	C325.714172,945.687622 326.408386,945.198486 327.606567,945.883057 
	C329.300751,946.851257 330.964722,947.952820 332.411285,950.380188 
	C329.443634,950.799683 327.845367,949.468445 326.272461,947.422974 
z"/>
</svg>