<?xml version="1.0" standalone="no"?>
<!DOCTYPE svg PUBLIC "-//W3C//DTD SVG 20010904//EN"
 "http://www.w3.org/TR/2001/REC-SVG-20010904/DTD/svg10.dtd">
<svg version="1.0" xmlns="http://www.w3.org/2000/svg"
 width="500.000000pt" height="500.000000pt" viewBox="0 0 500.000000 500.000000"
 preserveAspectRatio="xMidYMid meet">

<g transform="translate(0.000000,500.000000) scale(0.100000,-0.100000)"
fill="#000000" stroke="none">
<path d="M1600 4672 c-135 -180 -550 -733 -923 -1229 -649 -862 -678 -903
-675 -939 3 -37 18 -19 564 708 l561 746 669 -754 c368 -415 669 -760 668
-767 -1 -7 -344 -556 -763 -1221 -418 -664 -761 -1209 -761 -1212 0 -2 12 -4
28 -4 25 1 80 85 782 1199 415 660 758 1197 763 1194 4 -2 485 -542 1068
-1199 964 -1086 1063 -1194 1090 -1194 22 0 28 4 23 13 -7 10 -514 584 -591
668 l-23 26 460 784 c423 722 460 788 460 829 -1 38 -3 42 -13 29 -7 -9 -221
-373 -476 -808 l-464 -792 -28 28 c-86 88 -2848 3208 -2843 3212 3 3 532 226
1176 496 644 270 1173 496 1176 503 3 9 -179 12 -840 12 l-843 -1 -245 -327z"/>
</g>
</svg>
